<svg id="svg" version="1.1" xmlns="http://www.w3.org/2000/svg" xmlns:xlink="http://www.w3.org/1999/xlink" width="400" height="400.3466204506066" viewBox="0, 0, 400,400.3466204506066"><g id="svgg"><path id="path0" d="M195.844 1.093 C 193.501 2.017,190.429 4.994,189.282 7.452 C 187.582 11.093,187.592 11.896,189.552 28.596 C 192.040 49.805,191.933 51.180,187.298 57.585 C 186.196 59.107,186.135 59.346,186.135 62.133 L 186.135 65.075 183.969 65.316 C 161.263 67.841,138.018 77.258,118.607 91.795 L 114.684 94.733 112.541 92.652 C 110.454 90.624,110.291 90.540,106.276 89.416 C 99.988 87.656,95.275 83.492,87.868 73.148 C 82.616 65.815,79.151 61.485,76.927 59.479 C 68.037 51.459,55.235 56.062,55.329 67.244 C 55.384 73.780,56.142 74.696,71.661 86.971 C 87.213 99.271,88.466 100.678,89.818 107.349 C 90.501 110.716,90.525 110.763,92.570 112.837 L 94.633 114.929 92.565 117.627 C 78.428 136.064,68.536 159.826,65.813 181.889 L 65.374 185.442 62.626 185.442 C 59.892 185.442,59.854 185.454,55.752 187.711 C 49.292 191.263,44.271 191.487,28.943 188.904 C 13.930 186.375,8.820 186.835,4.231 191.127 C -1.963 196.921,-0.341 206.774,7.433 210.578 C 11.192 212.417,12.074 212.411,28.668 210.442 C 49.557 207.964,51.231 208.082,57.480 212.465 C 59.417 213.824,59.558 213.865,62.313 213.865 C 65.532 213.865,65.282 213.595,65.694 217.504 C 67.900 238.394,77.930 263.122,91.493 281.109 C 92.571 282.539,93.580 283.919,93.736 284.177 C 93.929 284.497,93.418 285.261,92.116 286.603 C 90.308 288.465,90.151 288.775,88.931 292.894 C 86.717 300.364,83.936 303.240,67.288 315.271 C 57.366 322.441,54.029 327.581,55.076 334.081 C 56.083 340.334,60.141 343.674,66.732 343.674 C 73.698 343.674,73.994 343.433,86.316 327.730 C 98.929 311.654,100.280 310.500,108.049 309.147 C 110.047 308.799,110.397 308.601,112.024 306.896 C 114.165 304.653,113.891 304.677,116.173 306.527 C 134.878 321.695,158.623 331.544,184.835 335.007 L 186.482 335.224 186.482 338.134 L 186.482 341.044 188.579 344.835 C 191.940 350.911,192.213 356.923,189.778 371.231 C 188.073 381.242,187.789 387.508,188.885 390.915 C 192.459 402.032,206.377 403.228,211.483 392.857 C 213.195 389.379,213.168 387.892,211.077 370.237 L 209.256 354.860 209.817 351.439 C 210.407 347.843,211.026 346.325,213.220 343.087 C 214.513 341.178,214.558 341.014,214.558 338.163 L 214.558 335.213 215.685 335.043 C 243.308 330.868,262.520 323.191,281.860 308.601 L 285.557 305.812 287.314 307.590 C 288.896 309.193,289.371 309.451,292.109 310.195 C 300.521 312.480,303.826 315.380,313.692 329.133 C 322.714 341.711,326.068 344.367,332.922 344.367 C 342.486 344.367,347.652 335.615,343.316 326.759 C 341.963 323.997,341.222 323.326,327.968 312.869 C 312.718 300.838,311.385 299.298,310.084 292.201 C 309.554 289.308,309.510 289.223,307.631 287.514 L 305.718 285.773 308.359 282.314 C 323.195 262.885,332.206 240.481,335.366 215.165 L 335.571 213.518 338.134 213.518 C 340.371 213.518,340.927 213.383,342.500 212.456 C 343.491 211.871,345.408 210.819,346.761 210.117 L 349.220 208.841 356.326 208.848 C 363.019 208.854,363.884 208.934,371.231 210.214 C 377.974 211.390,379.759 211.577,384.419 211.593 L 389.809 211.612 392.456 210.304 C 402.202 205.489,402.003 192.831,392.110 188.302 C 388.884 186.825,386.772 186.881,369.747 188.901 L 354.572 190.700 351.102 190.151 C 347.394 189.564,345.904 188.953,342.666 186.696 C 340.710 185.332,340.503 185.269,338.014 185.269 L 335.410 185.269 334.786 180.936 C 331.469 157.897,322.650 136.782,308.567 118.160 L 305.786 114.484 307.673 112.596 C 309.431 110.839,309.633 110.461,310.609 107.088 C 312.268 101.361,312.564 100.880,317.412 96.036 C 320.849 92.603,323.308 90.568,328.423 86.924 C 342.001 77.252,344.666 74.001,344.699 67.064 C 344.733 59.941,340.126 55.360,332.929 55.360 C 326.693 55.360,325.393 56.415,314.398 70.402 C 301.794 86.437,299.528 88.494,293.017 89.815 C 289.669 90.494,289.562 90.546,287.643 92.436 C 286.287 93.770,285.540 94.276,285.216 94.077 C 284.959 93.918,283.501 92.832,281.976 91.663 C 268.004 80.950,250.660 72.710,232.756 68.277 C 227.735 67.034,217.287 65.168,215.338 65.166 C 214.595 65.165,214.558 65.035,214.558 62.413 C 214.558 59.695,214.533 59.616,212.471 55.914 C 208.890 49.484,208.543 43.796,210.877 29.824 C 213.181 16.029,213.233 11.908,211.158 7.495 C 208.400 1.630,201.643 -1.195,195.844 1.093 M204.596 3.572 C 210.606 7.094,211.591 12.841,208.887 28.596 C 207.926 34.199,207.529 37.647,207.391 41.594 C 207.107 49.697,207.539 51.843,210.495 57.019 L 211.683 59.099 200.339 59.099 L 188.995 59.099 189.944 57.712 C 194.021 51.757,194.184 49.263,191.813 29.056 C 189.817 12.041,189.800 11.326,191.327 8.335 C 193.998 3.097,200.068 0.919,204.596 3.572 M71.981 58.904 C 75.510 60.551,77.556 62.897,88.042 77.323 C 93.676 85.076,99.285 89.829,104.550 91.315 C 106.432 91.846,108.083 92.346,108.219 92.427 C 108.355 92.507,107.809 93.150,107.006 93.856 C 102.047 98.214,98.073 102.067,95.419 105.091 L 92.383 108.552 91.967 106.529 C 90.514 99.455,88.471 97.127,73.310 85.267 C 58.421 73.619,57.945 73.099,57.616 68.072 C 57.086 60.003,64.372 55.354,71.981 58.904 M337.459 58.496 C 340.902 60.268,342.645 63.574,342.389 67.845 C 342.049 73.518,339.609 76.101,324.103 87.202 C 315.671 93.238,310.715 98.908,309.043 104.431 C 307.713 108.822,307.870 108.737,305.717 106.239 C 303.122 103.228,295.429 95.516,293.518 94.010 C 291.447 92.378,291.429 92.440,294.149 91.924 C 300.559 90.708,302.943 88.583,314.912 73.420 C 320.282 66.617,325.175 60.631,325.787 60.116 C 328.840 57.547,334.175 56.807,337.459 58.496 M210.312 60.200 L 212.132 60.407 212.132 62.629 L 212.132 64.850 208.579 64.574 C 204.590 64.264,194.939 64.208,190.988 64.471 L 188.388 64.645 188.286 62.508 L 188.183 60.371 190.366 60.166 C 191.566 60.053,193.172 59.899,193.934 59.823 C 195.714 59.647,207.926 59.928,210.312 60.200 M210.262 67.592 C 316.343 75.852,370.533 199.785,304.305 282.669 C 237.021 366.875,102.312 340.117,72.637 236.652 C 49.307 155.313,106.406 74.284,191.854 67.471 C 195.225 67.203,206.182 67.275,210.262 67.592 M112.569 96.038 C 112.519 96.158,110.763 97.742,108.666 99.558 C 104.731 102.965,100.523 107.188,97.614 110.648 L 95.948 112.631 94.421 111.355 C 93.581 110.653,92.894 109.917,92.894 109.719 C 92.894 108.672,102.454 98.916,108.127 94.173 L 109.669 92.884 111.164 94.351 C 111.986 95.158,112.618 95.917,112.569 96.038 M293.319 95.047 C 298.040 99.077,307.106 108.697,307.106 109.677 C 307.106 110.615,304.357 112.826,303.856 112.291 C 303.596 112.013,301.739 109.896,299.728 107.587 C 296.540 103.925,292.770 100.264,288.782 96.959 C 287.515 95.908,287.512 95.923,289.389 93.847 C 290.520 92.597,290.409 92.564,293.319 95.047 M195.667 102.136 C 111.260 107.229,71.932 208.837,131.351 268.307 C 188.255 325.261,285.124 293.469,297.238 213.865 C 306.409 153.602,256.296 98.478,195.667 102.136 M210.745 103.109 C 292.223 111.846,326.925 211.302,268.587 268.882 C 219.200 317.628,135.620 299.759,110.119 235.003 C 83.610 167.689,138.769 95.390,210.745 103.109 M192.894 105.034 C 112.517 112.211,75.974 208.719,131.882 266.163 C 188.573 324.412,287.312 290.000,295.293 209.212 C 301.063 150.810,250.972 99.849,192.894 105.034 M206.239 106.791 C 213.363 107.213,213.004 107.100,213.291 109.012 L 213.499 110.399 200.857 110.399 L 188.215 110.399 188.215 108.932 C 188.215 107.150,188.114 107.185,194.281 106.797 C 196.759 106.641,199.021 106.490,199.307 106.462 C 199.593 106.434,202.712 106.582,206.239 106.791 M187.143 109.965 C 187.089 111.214,187.373 111.903,189.012 114.489 C 192.232 119.573,192.172 119.178,191.910 133.790 C 191.356 164.657,191.257 167.418,190.709 167.418 C 190.427 167.418,188.886 167.980,187.285 168.668 L 184.374 169.918 182.395 168.074 C 176.968 163.018,156.452 143.181,153.676 140.305 C 149.857 136.349,149.683 136.030,148.696 131.196 C 148.026 127.916,147.774 127.255,146.894 126.468 L 145.871 125.552 148.065 124.005 C 158.040 116.973,171.819 111.275,184.229 109.051 C 185.754 108.778,187.048 108.540,187.104 108.523 C 187.161 108.506,187.178 109.155,187.143 109.965 M218.984 109.556 C 231.882 112.297,244.060 117.714,254.933 125.545 C 255.134 125.690,254.904 126.189,254.374 126.760 C 253.721 127.463,253.268 128.639,252.724 131.040 C 251.329 137.207,251.308 137.234,239.304 148.725 C 219.225 167.944,216.811 170.197,216.464 170.037 C 216.274 169.948,214.792 169.329,213.172 168.660 L 210.225 167.444 209.988 157.986 C 209.858 152.783,209.702 142.054,209.642 134.142 C 209.517 117.824,209.295 119.306,212.615 114.347 C 214.115 112.106,214.558 111.148,214.558 110.142 C 214.558 108.586,214.474 108.597,218.984 109.556 M212.147 111.550 C 212.769 111.780,212.698 111.981,211.228 114.173 C 208.060 118.895,207.966 120.175,208.643 149.473 C 208.864 159.007,208.973 166.879,208.888 166.965 C 208.802 167.051,207.976 166.844,207.052 166.505 C 205.078 165.781,196.735 165.649,194.117 166.300 C 193.264 166.512,192.515 166.634,192.452 166.571 C 192.390 166.509,192.499 159.693,192.696 151.426 C 193.494 117.958,193.587 119.481,190.449 114.392 C 189.591 113.000,188.984 111.767,189.100 111.650 C 189.749 111.000,210.418 110.910,212.147 111.550 M145.321 126.684 C 146.556 127.771,146.575 127.706,144.454 129.568 C 141.042 132.562,133.395 140.202,131.100 142.909 L 128.810 145.610 127.606 144.405 L 126.402 143.201 128.911 140.245 C 133.495 134.847,142.965 125.816,144.021 125.838 C 144.211 125.842,144.796 126.223,145.321 126.684 M261.085 129.251 C 265.964 133.475,274.523 142.511,274.523 143.438 C 274.523 143.582,274.094 144.215,273.568 144.844 L 272.613 145.988 268.802 141.747 C 265.425 137.989,259.236 131.990,255.819 129.163 L 254.618 128.170 255.737 127.170 C 257.238 125.830,257.047 125.755,261.085 129.251 M147.135 129.723 C 147.234 130.152,147.548 131.640,147.833 133.029 C 148.755 137.538,148.773 137.558,169.671 157.622 C 185.210 172.542,183.782 170.883,181.787 171.704 C 179.920 172.472,175.389 176.626,173.105 179.665 C 172.222 180.840,171.362 181.802,171.196 181.802 C 171.029 181.802,166.484 177.186,161.096 171.543 C 137.185 146.502,139.274 148.371,133.458 146.815 C 131.688 146.341,130.170 145.884,130.085 145.799 C 129.650 145.364,145.790 128.943,146.652 128.943 C 146.818 128.943,147.035 129.294,147.135 129.723 M260.106 134.238 C 264.767 138.579,271.522 145.953,271.155 146.299 C 271.006 146.440,269.558 146.821,267.938 147.147 C 262.671 148.204,262.406 148.435,242.119 169.634 C 228.598 183.762,229.334 183.092,228.846 181.716 C 227.946 179.174,222.561 173.492,219.138 171.472 L 217.968 170.782 218.776 170.013 C 254.757 135.760,252.197 138.514,253.573 132.582 C 254.411 128.968,254.292 129.140,255.372 129.978 C 255.896 130.385,258.027 132.302,260.106 134.238 M131.792 147.637 C 136.335 148.664,138.842 149.975,141.258 152.584 C 142.337 153.750,148.396 160.099,154.721 166.693 C 161.047 173.288,167.217 179.735,168.432 181.020 L 170.642 183.357 169.571 185.699 C 168.982 186.988,168.399 188.455,168.276 188.961 L 168.053 189.880 163.489 190.079 C 149.578 190.684,121.931 190.845,119.823 190.333 C 119.096 190.156,117.060 189.061,115.299 187.900 C 112.659 186.159,111.842 185.789,110.641 185.789 C 108.855 185.789,108.856 185.801,110.076 180.284 C 112.547 169.106,117.562 157.598,124.186 147.901 L 126.271 144.850 127.347 145.862 C 128.185 146.650,129.169 147.043,131.792 147.637 M277.708 149.673 C 284.591 160.228,288.940 171.019,291.328 183.465 L 291.780 185.820 290.338 185.604 C 289.018 185.406,288.637 185.550,285.837 187.308 C 284.154 188.365,281.895 189.565,280.816 189.975 L 278.856 190.721 256.846 190.297 C 230.298 189.785,232.878 190.151,231.367 186.674 L 230.170 183.921 232.504 181.475 C 264.461 148.001,263.004 149.324,269.324 148.038 C 272.117 147.470,273.163 147.098,273.822 146.439 C 274.971 145.291,274.706 145.070,277.708 149.673 M204.109 168.125 C 233.709 171.837,242.516 210.599,217.443 226.815 C 203.231 236.007,181.726 231.577,173.817 217.828 C 173.276 216.888,172.557 215.754,172.219 215.309 C 170.130 212.557,168.372 205.507,168.359 199.827 C 168.313 180.699,185.171 165.750,204.109 168.125 M194.801 178.186 C 179.337 182.221,172.870 200.014,182.144 213.009 C 192.946 228.146,216.913 223.750,221.858 205.724 C 226.334 189.409,211.122 173.927,194.801 178.186 M199.307 183.669 L 199.307 188.136 197.834 188.360 C 197.023 188.483,195.508 189.051,194.467 189.623 L 192.573 190.662 189.441 187.528 L 186.308 184.395 187.348 183.545 C 190.035 181.349,195.150 179.276,198.007 179.226 L 199.307 179.203 199.307 183.669 M206.508 180.066 C 209.082 180.879,212.834 182.966,213.765 184.102 C 214.115 184.529,213.672 185.127,211.148 187.639 L 208.111 190.662 206.027 189.588 C 204.881 188.997,203.290 188.425,202.491 188.318 L 201.040 188.124 201.040 183.663 L 201.040 179.203 202.408 179.203 C 203.161 179.203,205.006 179.591,206.508 180.066 M190.845 192.704 C 190.009 193.659,188.932 196.087,188.700 197.542 L 188.473 198.960 184.011 198.960 L 179.549 198.960 179.549 197.884 C 179.549 195.091,181.295 190.608,183.629 187.406 L 184.850 185.730 188.083 188.949 C 190.893 191.748,191.254 192.238,190.845 192.704 M217.014 187.608 C 218.662 189.868,219.737 192.184,220.473 195.063 C 221.548 199.266,221.848 198.960,216.644 198.960 L 212.145 198.960 211.934 198.007 C 211.509 196.086,211.071 194.943,210.242 193.588 L 209.395 192.201 212.402 189.168 C 215.908 185.633,215.640 185.724,217.014 187.608 M111.136 187.608 C 110.718 189.163,110.519 203.398,110.856 207.626 C 111.257 212.641,111.376 212.279,109.418 211.985 C 107.933 211.763,107.880 211.711,107.666 210.297 C 106.927 205.399,107.166 188.479,107.994 187.140 C 108.476 186.360,111.356 186.790,111.136 187.608 M292.780 189.168 C 293.151 192.188,293.150 206.405,292.778 209.445 L 292.492 211.785 290.780 211.785 C 289.082 211.785,289.070 211.778,289.323 210.832 C 289.669 209.539,289.671 189.758,289.326 188.128 L 289.050 186.828 290.771 186.828 L 292.492 186.828 292.780 189.168 M115.547 189.546 C 119.515 192.136,120.087 192.168,152.223 191.563 L 167.705 191.272 167.138 192.776 C 166.512 194.442,166.317 202.765,166.826 206.172 L 167.100 208.011 164.226 207.819 C 162.645 207.713,152.448 207.452,141.566 207.238 C 118.977 206.794,120.094 206.691,115.097 209.694 C 113.499 210.654,112.113 211.362,112.017 211.266 C 111.233 210.482,111.655 187.331,112.447 187.635 C 112.677 187.723,114.072 188.583,115.547 189.546 M288.509 189.861 C 288.789 192.830,288.740 207.199,288.441 209.644 L 288.215 211.489 285.256 209.569 C 283.339 208.326,281.629 207.505,280.403 207.240 C 278.465 206.820,246.784 207.016,237.022 207.509 L 232.622 207.730 233.325 205.512 C 234.039 203.254,234.099 194.669,233.420 191.884 L 233.173 190.874 240.763 191.105 C 276.515 192.193,280.591 191.994,285.615 188.923 C 288.459 187.185,288.250 187.117,288.509 189.861 M339.891 190.035 C 340.214 192.996,340.127 206.192,339.766 209.185 L 339.515 211.265 337.608 211.366 L 335.702 211.468 335.702 199.495 L 335.702 187.522 337.660 187.522 L 339.618 187.522 339.891 190.035 M65.006 188.648 C 64.447 191.179,64.149 201.411,64.497 206.097 C 64.930 211.927,64.963 211.845,62.218 211.702 L 60.485 211.612 60.202 209.012 C 59.879 206.057,60.110 189.399,60.486 188.475 C 60.913 187.424,65.239 187.590,65.006 188.648 M59.206 193.241 C 58.862 198.132,59.064 209.453,59.515 210.629 C 59.744 211.226,59.698 211.223,58.735 210.586 C 51.538 205.825,50.088 205.704,29.289 208.143 C 10.209 210.380,9.772 210.354,5.914 206.746 C 0.616 201.790,1.879 194.176,8.560 190.793 C 11.697 189.205,18.437 189.314,29.116 191.127 C 43.375 193.547,50.069 193.304,55.928 190.156 C 57.860 189.117,59.464 188.295,59.493 188.328 C 59.522 188.361,59.393 190.572,59.206 193.241 M344.040 190.233 C 348.673 193.082,352.415 193.187,370.884 190.984 C 387.236 189.034,388.541 189.001,391.532 190.465 C 398.394 193.822,399.487 202.371,393.644 206.991 C 389.682 210.125,385.370 210.356,372.097 208.148 C 361.884 206.449,358.058 206.136,352.743 206.568 C 347.996 206.953,347.380 207.137,343.548 209.308 C 342.154 210.099,340.904 210.745,340.772 210.745 C 340.639 210.745,340.664 209.224,340.827 207.366 C 340.989 205.507,341.055 200.433,340.971 196.091 L 340.820 188.196 341.554 188.676 C 341.958 188.940,343.076 189.641,344.040 190.233 M203.559 190.494 C 208.756 192.265,211.589 198.670,209.385 203.665 C 206.002 211.330,195.529 211.833,191.549 204.521 C 187.273 196.663,195.040 187.591,203.559 190.494 M188.701 202.117 C 188.922 203.501,189.648 205.256,190.657 206.843 C 191.128 207.584,191.006 207.768,188.037 210.758 L 184.922 213.896 183.833 212.609 C 181.686 210.071,179.549 204.697,179.549 201.834 L 179.549 200.693 184.011 200.693 L 188.473 200.693 188.701 202.117 M220.992 202.340 C 220.526 205.656,218.961 209.481,216.871 212.404 L 215.809 213.890 212.612 210.706 L 209.415 207.522 210.200 206.274 C 210.958 205.070,211.491 203.647,211.934 201.646 L 212.145 200.693 216.684 200.693 L 221.223 200.693 220.992 202.340 M151.120 208.695 C 160.172 208.895,167.590 209.086,167.605 209.122 C 167.619 209.157,168.072 210.355,168.611 211.785 C 169.150 213.215,169.887 214.879,170.249 215.484 L 170.907 216.583 162.008 225.883 C 138.752 250.187,138.233 250.645,132.574 251.843 C 128.744 252.655,128.403 252.795,127.379 253.979 L 126.282 255.247 124.462 252.667 C 116.737 241.714,111.458 228.649,109.030 214.471 L 108.807 213.172 110.402 213.172 C 111.681 213.172,112.387 212.907,113.970 211.833 C 119.136 208.331,120.444 208.001,128.423 208.187 C 131.854 208.267,142.068 208.496,151.120 208.695 M281.496 208.723 C 282.186 209.032,284.056 210.159,285.653 211.228 C 288.182 212.922,288.771 213.172,290.235 213.172 L 291.915 213.172 291.684 214.645 C 289.746 226.996,284.542 240.245,277.406 250.998 C 274.674 255.115,274.718 255.082,273.497 253.912 C 272.789 253.234,271.740 252.810,269.625 252.345 C 262.662 250.816,264.563 252.454,240.499 227.256 L 229.951 216.211 230.872 214.258 C 231.378 213.184,232.061 211.486,232.389 210.485 L 232.985 208.666 237.376 208.619 C 239.792 208.594,246.057 208.461,251.300 208.324 C 267.588 207.898,280.024 208.062,281.496 208.723 M193.242 209.361 C 193.604 209.946,195.571 210.847,197.400 211.266 L 199.133 211.663 199.230 216.230 C 199.305 219.761,199.226 220.796,198.884 220.791 C 196.048 220.753,189.841 218.319,187.522 216.336 L 186.308 215.299 189.421 212.156 C 192.597 208.947,192.865 208.751,193.242 209.361 M211.237 212.104 L 214.315 215.196 213.310 216.079 C 211.041 218.073,206.394 220.032,202.513 220.631 L 201.040 220.858 201.040 216.328 L 201.040 211.798 201.993 211.594 C 203.566 211.258,205.654 210.441,206.759 209.731 C 207.331 209.364,207.880 209.051,207.979 209.037 C 208.079 209.024,209.545 210.403,211.237 212.104 M173.137 219.063 C 174.241 221.243,177.917 225.162,181.023 227.472 L 183.403 229.242 181.390 231.211 C 180.282 232.294,175.555 236.820,170.884 241.269 C 148.802 262.300,149.413 261.601,147.901 267.612 L 147.109 270.761 144.178 268.195 C 140.533 265.003,130.329 254.484,130.329 253.918 C 130.329 253.669,131.721 253.207,133.781 252.773 C 136.228 252.258,137.673 251.744,138.745 251.006 C 140.353 249.899,154.252 235.864,165.165 224.327 C 172.703 216.357,172.000 216.821,173.137 219.063 M244.608 233.276 C 263.652 253.184,261.851 251.656,268.079 253.186 L 271.167 253.944 268.739 256.695 C 265.451 260.420,254.828 270.711,254.270 270.711 C 253.982 270.711,253.606 269.620,253.223 267.678 C 252.164 262.301,252.211 262.355,231.023 242.013 C 215.849 227.445,217.206 229.060,219.295 228.049 C 221.346 227.055,225.914 222.734,227.999 219.813 L 229.567 217.616 231.368 219.467 C 232.358 220.484,238.317 226.698,244.608 233.276 M188.782 231.683 L 190.562 232.265 190.837 243.602 C 190.988 249.838,191.123 260.555,191.137 267.418 C 191.164 281.495,191.468 279.769,188.028 285.101 C 186.369 287.672,186.135 288.253,186.135 289.795 C 186.135 291.308,186.050 291.530,185.529 291.376 C 185.195 291.278,184.298 291.096,183.536 290.972 C 173.620 289.353,159.594 283.734,150.260 277.640 C 145.344 274.431,145.577 274.747,147.009 273.223 C 147.962 272.209,148.326 271.430,148.669 269.671 C 150.024 262.729,149.046 263.913,170.014 243.824 L 184.568 229.880 185.785 230.490 C 186.454 230.826,187.803 231.363,188.782 231.683 M226.539 239.380 C 250.739 262.475,250.983 262.752,252.200 268.555 C 252.960 272.176,253.168 272.714,254.125 273.509 L 255.198 274.402 252.989 275.971 C 243.309 282.847,231.065 288.104,218.767 290.663 C 213.223 291.816,213.449 291.852,213.713 289.859 C 213.912 288.356,213.819 288.043,212.648 286.306 C 208.366 279.956,208.494 280.997,208.976 256.403 C 209.470 231.170,209.363 232.451,211.024 231.940 C 211.729 231.723,213.085 231.167,214.038 230.705 C 214.991 230.242,215.938 229.852,216.141 229.837 C 216.344 229.822,221.023 234.116,226.539 239.380 M193.804 232.822 C 195.606 233.519,204.028 233.641,206.576 233.007 C 207.429 232.795,208.188 232.683,208.263 232.758 C 208.339 232.833,208.225 240.194,208.010 249.116 C 207.796 258.038,207.622 268.536,207.623 272.444 L 207.626 279.549 208.689 281.802 C 209.273 283.042,210.229 284.802,210.813 285.715 C 211.397 286.628,211.781 287.468,211.666 287.583 C 210.917 288.332,191.428 288.470,188.717 287.745 L 187.875 287.520 189.277 285.441 C 192.485 280.683,192.204 282.798,192.178 263.605 C 192.165 254.263,192.041 243.384,191.902 239.428 C 191.750 235.103,191.777 232.236,191.969 232.236 C 192.144 232.236,192.970 232.500,193.804 232.822 M137.756 263.283 C 140.630 266.156,143.839 269.226,144.887 270.105 L 146.794 271.704 145.776 272.767 C 145.216 273.352,144.611 273.830,144.432 273.830 C 143.384 273.830,134.547 265.456,129.758 259.925 L 126.761 256.464 127.916 255.272 L 129.072 254.080 130.802 256.069 C 131.753 257.164,134.883 260.410,137.756 263.283 M273.205 255.351 C 273.739 255.863,274.177 256.429,274.177 256.608 C 274.177 257.728,265.368 267.020,260.027 271.535 L 256.797 274.265 255.607 273.112 L 254.417 271.958 256.238 270.401 C 259.187 267.878,267.450 259.652,269.766 256.932 C 272.240 254.028,271.959 254.157,273.205 255.351 M97.400 288.644 C 99.821 291.681,106.582 298.579,109.620 301.113 L 112.362 303.400 110.798 304.964 L 109.234 306.528 106.350 304.079 C 103.319 301.505,97.938 296.073,94.483 292.098 L 92.435 289.743 93.950 288.199 C 95.795 286.319,95.517 286.283,97.400 288.644 M305.889 292.092 C 304.184 294.222,295.872 302.532,292.786 305.192 L 290.426 307.228 288.830 305.632 L 287.235 304.037 288.413 303.058 C 294.092 298.342,298.097 294.453,301.839 290.020 L 304.120 287.318 305.673 288.871 L 307.226 290.424 305.889 292.092 M212.478 290.375 C 212.478 292.174,212.670 292.114,205.659 292.516 C 200.868 292.792,190.282 292.492,188.302 292.025 C 187.645 291.870,187.522 291.610,187.522 290.375 L 187.522 288.908 200.000 288.908 L 212.478 288.908 212.478 290.375 M97.390 296.636 C 99.538 298.981,102.759 302.172,104.547 303.729 C 108.422 307.103,108.356 306.842,105.472 307.389 C 99.211 308.577,97.006 310.558,84.763 325.997 C 77.504 335.149,74.160 339.098,73.084 339.788 C 65.452 344.684,56.495 339.726,57.283 331.041 C 57.682 326.641,60.943 322.666,68.804 316.996 C 86.445 304.274,89.197 301.274,91.517 292.236 L 91.909 290.711 92.697 291.543 C 93.130 292.000,95.242 294.292,97.390 296.636 M309.209 297.701 C 311.230 302.291,313.290 304.299,327.210 315.241 C 339.950 325.256,340.133 325.419,341.310 327.825 C 344.784 334.926,340.526 342.263,332.922 342.281 C 327.729 342.294,324.274 339.721,318.102 331.248 C 305.703 314.226,301.998 310.610,294.933 308.637 L 291.430 307.659 292.769 306.467 C 297.619 302.150,302.563 297.321,304.889 294.629 L 307.600 291.493 308.071 293.840 C 308.331 295.131,308.843 296.868,309.209 297.701 M201.560 336.049 C 204.038 336.049,207.509 335.933,209.272 335.792 L 212.478 335.536 212.478 337.756 L 212.478 339.976 209.792 340.251 C 206.513 340.586,196.545 340.572,191.941 340.225 L 188.562 339.970 188.562 337.728 L 188.562 335.487 192.808 335.768 C 195.143 335.922,199.081 336.049,201.560 336.049 M203.671 341.325 L 211.675 341.174 210.180 343.637 C 206.818 349.178,206.692 352.145,209.004 371.404 C 210.953 387.652,210.979 388.807,209.452 391.924 C 205.487 400.022,195.285 399.698,191.370 391.350 C 190.278 389.022,190.152 382.435,191.092 376.776 C 193.451 362.582,193.479 362.316,193.358 355.575 L 193.241 349.104 191.248 345.158 C 190.152 342.988,189.255 341.136,189.255 341.043 C 189.255 340.949,190.698 341.008,192.461 341.174 C 194.224 341.340,199.269 341.408,203.671 341.325 " stroke="none" fill="#070604" fill-rule="evenodd"></path><path id="path1" d="M196.360 3.589 C 190.102 6.509,189.634 9.246,192.005 29.070 C 194.416 49.233,194.251 51.589,189.978 58.067 L 189.286 59.115 191.957 58.871 C 195.525 58.546,202.758 58.559,207.452 58.898 C 209.549 59.050,211.306 59.142,211.355 59.104 C 211.405 59.065,210.673 57.645,209.729 55.947 C 206.475 50.096,206.203 43.271,208.645 28.769 C 211.105 14.165,210.789 9.528,207.078 5.710 C 204.151 2.697,200.021 1.880,196.360 3.589 M330.620 58.015 C 326.790 58.847,326.115 59.507,316.059 72.274 C 302.691 89.247,301.215 90.539,293.112 92.359 L 292.116 92.582 293.632 93.849 C 296.246 96.033,302.189 101.952,304.959 105.129 C 307.143 107.634,307.662 108.067,307.864 107.555 C 307.999 107.213,308.507 105.585,308.993 103.939 C 310.491 98.864,315.237 93.521,323.770 87.303 C 340.634 75.014,342.300 73.192,342.277 67.071 C 342.253 60.545,337.167 56.594,330.620 58.015 M63.592 58.416 C 57.745 60.579,55.882 67.969,59.722 73.770 C 60.142 74.404,66.256 79.496,73.310 85.086 C 89.412 97.845,90.591 99.214,92.352 107.196 L 92.563 108.153 93.666 106.849 C 96.469 103.539,102.529 97.501,106.508 94.052 L 108.164 92.618 104.255 91.386 C 98.702 89.636,93.281 84.887,87.185 76.430 C 77.980 63.658,75.732 61.053,72.377 59.264 C 69.789 57.885,66.014 57.521,63.592 58.416 M190.815 60.259 L 188.735 60.485 188.631 62.478 C 188.555 63.936,188.648 64.471,188.978 64.471 C 189.225 64.470,191.534 64.308,194.107 64.110 C 198.458 63.775,209.712 64.147,211.525 64.685 C 212.055 64.842,212.132 64.604,212.132 62.802 C 212.132 60.963,212.047 60.714,211.352 60.509 C 210.268 60.188,193.358 59.982,190.815 60.259 M194.281 67.631 C 132.556 70.053,79.652 116.927,69.531 178.163 C 56.133 259.224,118.265 332.567,200.347 332.581 C 293.994 332.597,358.166 238.181,323.678 151.127 C 304.842 103.581,257.287 69.360,207.799 67.737 C 204.939 67.644,202.054 67.529,201.386 67.483 C 200.719 67.437,197.522 67.504,194.281 67.631 M106.759 95.533 C 102.843 98.978,98.679 103.108,95.629 106.572 L 92.895 109.677 94.178 110.991 C 95.710 112.560,95.872 112.582,96.829 111.352 C 99.882 107.425,105.055 102.322,111.438 96.939 L 112.478 96.062 111.108 94.651 C 109.416 92.910,109.838 92.824,106.759 95.533 M288.948 94.586 L 287.634 95.932 288.385 96.458 C 290.800 98.149,296.557 103.687,300.056 107.682 C 304.706 112.994,304.165 112.687,305.850 110.962 L 307.161 109.619 306.018 108.276 C 300.972 102.347,291.650 93.241,290.625 93.241 C 290.425 93.241,289.671 93.846,288.948 94.586 M214.087 102.733 C 272.430 111.573,309.800 167.379,295.337 224.068 C 283.409 270.821,237.686 302.430,189.981 296.901 C 111.272 287.780,75.182 195.320,126.918 135.333 C 147.978 110.914,182.608 97.963,214.087 102.733 M193.824 102.967 C 110.180 109.031,73.239 211.001,133.491 269.504 C 184.075 318.621,269.468 297.861,292.345 230.886 C 314.646 165.596,262.571 97.982,193.824 102.967 M214.211 105.524 C 292.055 117.732,323.240 211.982,267.784 267.438 C 224.934 310.289,154.690 303.317,120.907 252.860 C 81.485 193.978,118.394 114.133,189.172 105.185 C 194.272 104.540,209.231 104.743,214.211 105.524 M194.107 106.961 C 193.440 107.039,191.919 107.194,190.728 107.305 L 188.562 107.508 188.562 109.046 C 188.562 110.558,188.579 110.580,189.515 110.322 C 190.745 109.983,210.964 109.988,212.218 110.327 C 213.153 110.580,213.172 110.555,213.172 109.064 L 213.172 107.542 211.525 107.329 C 209.452 107.059,195.735 106.770,194.107 106.961 M190.944 111.500 L 188.994 111.644 190.684 114.455 C 193.743 119.546,193.603 117.847,193.086 143.513 C 192.836 155.912,192.705 166.130,192.794 166.219 C 192.883 166.308,193.782 166.224,194.792 166.033 C 197.675 165.486,204.436 165.598,206.557 166.228 C 207.564 166.527,208.474 166.685,208.580 166.579 C 208.686 166.473,208.582 156.597,208.350 144.632 C 207.838 118.266,207.755 119.211,211.003 114.279 C 211.857 112.982,212.454 111.818,212.329 111.693 C 212.074 111.438,193.987 111.274,190.944 111.500 M142.104 127.444 C 136.818 131.802,126.863 142.051,126.863 143.134 C 126.863 143.265,127.303 143.793,127.842 144.309 L 128.820 145.246 131.791 141.860 C 134.880 138.342,139.906 133.362,143.933 129.832 C 146.188 127.855,146.250 127.758,145.670 127.117 C 144.453 125.772,144.091 125.806,142.104 127.444 M255.980 127.209 L 254.985 128.247 256.522 129.521 C 258.349 131.035,269.745 142.399,271.371 144.329 L 272.507 145.677 273.568 144.616 L 274.630 143.555 271.830 140.322 C 267.855 135.730,257.920 126.170,257.124 126.170 C 257.042 126.170,256.528 126.637,255.980 127.209 M142.207 133.117 C 139.886 135.221,136.191 138.923,133.997 141.343 L 130.008 145.742 133.047 146.487 C 138.881 147.919,138.493 147.575,161.312 171.486 L 171.315 181.967 172.358 180.392 C 174.214 177.591,178.313 173.543,180.720 172.135 C 181.982 171.397,183.016 170.762,183.016 170.724 C 183.016 170.687,179.935 167.714,176.170 164.119 C 149.039 138.213,148.498 137.616,147.494 132.444 C 146.747 128.598,147.263 128.532,142.207 133.117 M253.925 132.170 C 253.022 136.229,251.599 138.851,248.903 141.421 C 243.039 147.011,222.157 167.026,220.349 168.789 L 218.341 170.748 220.175 172.015 C 223.875 174.570,229.116 180.355,229.116 181.884 C 229.116 182.853,230.123 181.897,240.421 171.157 C 262.603 148.024,262.606 148.021,267.813 146.957 C 269.423 146.628,270.824 146.276,270.925 146.175 C 271.378 145.722,256.977 130.981,255.100 129.976 C 254.558 129.686,254.421 129.940,253.925 132.170 M195.029 168.474 C 172.343 172.282,161.138 198.217,173.844 217.511 C 185.518 235.237,211.922 236.382,225.087 219.733 C 243.074 196.986,223.548 163.688,195.029 168.474 M205.373 177.862 C 219.328 180.825,226.850 196.947,220.379 210.028 C 213.115 224.709,192.279 226.731,182.423 213.710 C 169.619 196.793,184.566 173.445,205.373 177.862 M289.601 199.291 L 289.601 211.785 290.912 211.785 C 292.541 211.785,292.445 212.123,292.868 204.917 C 293.154 200.055,292.843 187.680,292.426 187.301 C 292.398 187.275,291.750 187.151,290.988 187.026 L 289.601 186.797 289.601 199.291 M107.971 187.608 C 107.281 189.558,107.278 209.453,107.967 211.352 C 108.055 211.594,108.701 211.785,109.435 211.785 L 110.745 211.785 110.745 199.480 L 110.745 187.175 109.435 187.175 C 108.699 187.175,108.057 187.365,107.971 187.608 M286.655 188.451 C 284.843 189.723,281.812 191.211,280.061 191.688 C 278.557 192.098,240.663 191.635,235.302 191.142 L 233.343 190.961 233.713 192.448 C 234.343 194.977,234.231 203.724,233.545 205.532 C 233.223 206.383,233.022 207.141,233.099 207.218 C 233.175 207.294,242.564 207.163,253.963 206.925 C 281.106 206.360,280.766 206.332,285.477 209.492 C 287.608 210.922,287.881 211.021,288.189 210.480 C 288.620 209.722,288.611 189.374,288.178 188.340 L 287.868 187.599 286.655 188.451 M336.287 187.769 C 335.523 187.915,335.498 188.013,335.750 189.888 C 336.083 192.369,336.069 209.265,335.733 210.312 C 335.493 211.057,335.568 211.092,337.390 211.092 L 339.299 211.092 339.569 209.445 C 339.926 207.274,339.939 190.488,339.586 188.821 C 339.295 187.453,338.789 187.291,336.287 187.769 M60.447 190.901 C 60.090 194.860,60.081 206.895,60.433 209.445 L 60.708 211.438 62.757 211.438 L 64.805 211.438 64.556 209.792 C 64.224 207.598,64.230 195.489,64.565 191.248 L 64.832 187.868 62.776 187.868 L 60.721 187.868 60.447 190.901 M112.096 188.648 C 111.760 189.674,111.747 208.111,112.081 209.801 L 112.340 211.110 113.796 210.208 C 114.596 209.711,116.421 208.736,117.850 208.040 L 120.448 206.774 129.115 206.868 C 133.882 206.919,143.475 207.108,150.433 207.287 C 157.392 207.466,163.965 207.615,165.041 207.619 L 166.997 207.626 166.628 206.153 C 166.002 203.657,166.141 194.892,166.834 193.100 C 167.588 191.153,169.003 191.321,154.927 191.687 C 123.864 192.495,119.342 192.254,115.277 189.574 C 112.277 187.596,112.427 187.640,112.096 188.648 M55.459 190.514 C 49.603 193.574,43.446 193.771,29.089 191.360 C 16.725 189.284,12.713 189.182,8.995 190.850 C -0.276 195.010,1.279 207.148,11.373 209.412 C 13.008 209.779,14.949 209.623,28.704 208.023 C 49.505 205.604,51.961 205.748,57.752 209.733 L 59.375 210.850 59.137 209.054 C 58.832 206.756,58.831 194.486,59.135 191.128 C 59.263 189.717,59.307 188.573,59.233 188.587 C 59.159 188.602,57.461 189.469,55.459 190.514 M340.967 189.515 C 341.303 190.783,341.295 205.053,340.957 208.210 L 340.690 210.701 344.110 208.818 C 349.878 205.643,357.094 205.383,371.404 207.835 C 381.010 209.481,388.300 209.707,391.030 208.445 C 400.452 204.088,398.681 191.561,388.370 189.632 C 386.996 189.375,383.484 189.685,370.711 191.194 C 351.330 193.482,348.753 193.363,343.221 189.922 C 340.618 188.302,340.647 188.308,340.967 189.515 M166.223 223.490 C 140.748 250.250,138.868 251.964,133.866 252.985 C 132.094 253.347,130.580 253.706,130.503 253.784 C 129.948 254.339,146.349 270.573,147.036 270.148 C 147.189 270.054,147.314 269.662,147.314 269.279 C 147.314 268.895,147.806 267.096,148.408 265.282 C 149.782 261.136,149.021 261.971,167.993 243.793 C 176.255 235.875,183.016 229.356,183.016 229.305 C 183.016 229.254,181.841 228.313,180.406 227.214 C 177.113 224.691,174.052 221.365,172.937 219.099 L 172.073 217.344 166.223 223.490 M227.779 220.416 C 225.520 223.455,221.601 227.093,219.412 228.184 L 217.719 229.028 224.371 235.374 C 251.475 261.231,252.304 262.142,253.332 267.174 C 253.694 268.946,254.060 270.467,254.146 270.552 C 254.671 271.078,270.371 255.336,270.390 254.265 C 270.394 254.084,269.258 253.667,267.867 253.338 C 262.051 251.962,263.019 252.794,243.418 232.322 C 235.888 224.458,229.690 218.024,229.643 218.024 C 229.596 218.024,228.758 219.101,227.779 220.416 M192.264 246.880 C 192.915 279.713,192.883 280.218,189.905 284.781 C 188.955 286.236,188.257 287.506,188.354 287.603 C 188.677 287.926,203.587 288.140,207.724 287.881 L 211.809 287.625 211.090 286.534 C 210.006 284.888,208.125 281.110,207.629 279.582 C 207.202 278.268,207.646 241.243,208.163 235.052 L 208.347 232.843 207.380 233.080 C 204.970 233.670,196.329 233.713,194.371 233.144 C 193.310 232.835,192.337 232.582,192.211 232.582 C 192.084 232.582,192.108 239.016,192.264 246.880 M127.896 255.470 L 127.148 256.520 129.172 259.002 C 131.921 262.375,137.840 268.344,141.418 271.350 L 144.360 273.824 145.404 272.769 L 146.447 271.714 145.234 270.647 C 140.839 266.780,135.754 261.810,132.702 258.396 C 128.702 253.922,128.908 254.047,127.896 255.470 M268.911 258.146 C 265.809 261.643,261.227 266.196,257.019 269.961 L 254.593 272.132 255.565 272.981 C 256.890 274.138,256.606 274.280,261.401 270.060 C 266.149 265.881,267.649 264.362,271.527 259.807 L 274.170 256.703 273.242 255.734 C 272.024 254.463,272.327 254.294,268.911 258.146 M94.011 288.137 L 92.560 289.615 95.796 293.248 C 99.329 297.214,105.810 303.600,107.909 305.184 L 109.231 306.183 110.665 304.750 C 111.453 303.962,112.027 303.267,111.941 303.207 C 108.955 301.114,103.724 296.100,99.556 291.334 C 97.556 289.047,95.816 287.059,95.690 286.917 C 95.565 286.774,94.809 287.323,94.011 288.137 M302.385 289.699 C 299.458 293.177,295.604 297.046,291.681 300.443 C 287.124 304.388,287.382 303.887,289.061 305.526 L 290.434 306.867 291.578 305.981 C 295.107 303.245,304.420 293.934,306.428 291.133 L 307.070 290.238 305.561 288.977 L 304.052 287.716 302.385 289.699 M187.522 290.223 L 187.522 291.792 190.555 292.083 C 194.403 292.453,206.722 292.454,209.766 292.085 L 212.079 291.805 212.313 290.420 C 212.610 288.661,213.000 288.774,207.972 289.154 C 203.707 289.476,189.824 289.270,188.302 288.863 C 187.577 288.669,187.522 288.765,187.522 290.223 M91.008 294.676 C 89.456 300.052,84.697 305.683,76.990 311.265 C 67.899 317.849,63.788 321.009,61.784 322.953 C 53.798 330.700,57.294 341.956,67.499 341.351 C 72.510 341.054,72.971 340.647,83.588 327.141 C 96.142 311.171,98.412 309.040,104.621 307.397 L 107.509 306.632 104.968 304.389 C 102.041 301.806,96.834 296.471,94.191 293.348 C 91.919 290.663,92.201 290.545,91.008 294.676 M304.370 295.451 C 301.762 298.436,297.798 302.280,293.478 306.013 C 292.425 306.923,291.977 307.515,292.264 307.616 C 292.516 307.704,294.242 308.256,296.100 308.843 C 301.247 310.469,306.703 315.251,312.389 323.116 C 324.552 339.942,326.919 342.120,333.029 342.111 C 339.850 342.101,343.978 335.835,341.645 329.034 C 340.706 326.299,339.177 324.873,326.177 314.610 C 311.718 303.196,309.345 300.592,308.127 294.801 C 307.505 291.847,307.522 291.844,304.370 295.451 M188.821 337.526 C 188.726 338.620,188.699 339.572,188.761 339.642 C 189.516 340.495,211.486 340.499,212.280 339.646 C 212.347 339.574,212.325 338.735,212.231 337.782 L 212.060 336.049 201.437 336.049 C 195.595 336.049,190.405 335.933,189.904 335.793 C 189.009 335.541,188.990 335.571,188.821 337.526 M190.466 343.193 C 194.328 349.990,194.716 356.321,192.183 371.231 C 190.512 381.071,190.211 387.779,191.312 390.692 C 194.553 399.274,205.105 399.957,209.270 391.854 C 210.723 389.027,210.667 386.977,208.675 370.207 C 206.470 351.640,206.614 348.862,210.059 343.532 C 210.838 342.327,211.428 341.307,211.370 341.265 C 211.312 341.223,209.627 341.328,207.626 341.498 C 204.114 341.797,193.247 341.595,190.531 341.180 L 189.208 340.978 190.466 343.193 " stroke="none" fill="#cc9c34" fill-rule="evenodd"></path><path id="path2" d="M199.571 2.671 C 200.002 2.754,200.626 2.751,200.957 2.664 C 201.289 2.578,200.936 2.510,200.173 2.514 C 199.411 2.518,199.140 2.589,199.571 2.671 M207.055 43.154 C 207.054 44.870,207.113 45.616,207.186 44.811 C 207.258 44.007,207.259 42.603,207.188 41.692 C 207.116 40.780,207.057 41.438,207.055 43.154 M194.194 58.818 C 194.528 58.905,195.074 58.905,195.407 58.818 C 195.741 58.731,195.468 58.659,194.801 58.659 C 194.133 58.659,193.860 58.731,194.194 58.818 M203.037 58.824 C 203.468 58.907,204.092 58.904,204.423 58.817 C 204.755 58.730,204.402 58.662,203.640 58.666 C 202.877 58.670,202.606 58.741,203.037 58.824 M197.843 64.032 C 198.658 64.106,199.906 64.105,200.616 64.030 C 201.326 63.956,200.659 63.896,199.133 63.897 C 197.608 63.898,197.028 63.959,197.843 64.032 M196.439 67.495 C 197.055 67.571,198.147 67.572,198.866 67.497 C 199.585 67.422,199.081 67.360,197.747 67.358 C 196.412 67.357,195.824 67.418,196.439 67.495 M201.639 67.495 C 202.254 67.571,203.346 67.572,204.065 67.497 C 204.784 67.422,204.281 67.360,202.946 67.358 C 201.612 67.357,201.023 67.418,201.639 67.495 M315.923 93.674 L 314.905 94.801 316.031 93.783 C 316.651 93.223,317.158 92.716,317.158 92.656 C 317.158 92.388,316.872 92.624,315.923 93.674 M99.827 101.733 C 98.985 102.591,98.374 103.293,98.469 103.293 C 98.565 103.293,99.331 102.591,100.173 101.733 C 101.015 100.875,101.626 100.173,101.531 100.173 C 101.435 100.173,100.669 100.875,99.827 101.733 M295.653 103.033 C 297.089 104.563,297.400 104.839,297.400 104.578 C 297.400 104.523,296.659 103.782,295.754 102.932 L 294.107 101.386 295.653 103.033 M196.105 102.845 C 196.536 102.928,197.160 102.925,197.491 102.838 C 197.822 102.751,197.470 102.683,196.707 102.687 C 195.945 102.691,195.673 102.762,196.105 102.845 M203.899 102.839 C 204.233 102.926,204.779 102.926,205.113 102.839 C 205.446 102.751,205.173 102.680,204.506 102.680 C 203.839 102.680,203.566 102.751,203.899 102.839 M293.934 106.239 C 295.162 107.478,296.245 108.492,296.340 108.492 C 296.436 108.492,295.509 107.478,294.281 106.239 C 293.053 105.000,291.970 103.986,291.874 103.986 C 291.779 103.986,292.706 105.000,293.934 106.239 M188.302 109.359 C 188.306 110.121,188.377 110.392,188.460 109.961 C 188.543 109.530,188.540 108.906,188.453 108.575 C 188.366 108.243,188.298 108.596,188.302 109.359 M195.061 110.123 C 195.490 110.206,196.192 110.206,196.620 110.123 C 197.049 110.041,196.698 109.973,195.841 109.973 C 194.983 109.973,194.632 110.041,195.061 110.123 M204.766 110.123 C 205.195 110.206,205.897 110.206,206.326 110.123 C 206.755 110.041,206.404 109.973,205.546 109.973 C 204.688 109.973,204.337 110.041,204.766 110.123 M208.060 122.877 C 208.064 123.640,208.135 123.911,208.217 123.479 C 208.300 123.048,208.297 122.424,208.210 122.093 C 208.124 121.762,208.056 122.114,208.060 122.877 M208.102 130.156 C 208.103 132.253,208.160 133.066,208.229 131.963 C 208.298 130.860,208.297 129.144,208.227 128.150 C 208.158 127.156,208.101 128.059,208.102 130.156 M131.876 131.109 L 130.156 132.929 131.976 131.209 C 132.977 130.263,133.795 129.444,133.795 129.389 C 133.795 129.130,133.474 129.418,131.876 131.109 M265.165 130.078 C 265.165 130.130,266.373 131.339,267.851 132.764 L 270.537 135.355 267.946 132.669 C 265.540 130.174,265.165 129.825,265.165 130.078 M132.569 132.842 L 130.849 134.662 132.669 132.942 C 134.360 131.344,134.648 131.023,134.389 131.023 C 134.334 131.023,133.515 131.841,132.569 132.842 M266.031 134.142 C 267.355 135.477,268.517 136.568,268.612 136.568 C 268.708 136.568,267.702 135.477,266.378 134.142 C 265.054 132.808,263.892 131.716,263.797 131.716 C 263.701 131.716,264.707 132.808,266.031 134.142 M139.840 133.536 L 138.821 134.662 139.948 133.644 C 140.998 132.695,141.234 132.409,140.966 132.409 C 140.906 132.409,140.399 132.916,139.840 133.536 M193.181 134.662 C 193.183 135.997,193.246 136.500,193.321 135.781 C 193.396 135.062,193.394 133.970,193.318 133.354 C 193.241 132.739,193.180 133.328,193.181 134.662 M262.912 137.262 C 264.044 138.406,265.048 139.341,265.143 139.341 C 265.238 139.341,264.390 138.406,263.258 137.262 C 262.126 136.118,261.122 135.182,261.027 135.182 C 260.932 135.182,261.780 136.118,262.912 137.262 M133.947 139.428 L 132.929 140.555 134.055 139.537 C 135.106 138.588,135.341 138.302,135.074 138.302 C 135.014 138.302,134.507 138.808,133.947 139.428 M249.377 140.815 L 248.007 142.288 249.480 140.918 C 250.290 140.164,250.953 139.501,250.953 139.444 C 250.953 139.182,250.651 139.445,249.377 140.815 M158.925 147.660 C 159.864 148.614,160.711 149.393,160.806 149.393 C 160.901 149.393,160.211 148.614,159.272 147.660 C 158.333 146.707,157.487 145.927,157.392 145.927 C 157.296 145.927,157.987 146.707,158.925 147.660 M208.430 149.740 C 208.430 150.979,208.493 151.486,208.570 150.867 C 208.647 150.247,208.647 149.233,208.570 148.614 C 208.493 147.994,208.430 148.501,208.430 149.740 M192.828 150.607 C 192.830 151.750,192.895 152.177,192.972 151.554 C 193.049 150.931,193.048 149.995,192.969 149.474 C 192.890 148.953,192.826 149.463,192.828 150.607 M239.672 150.173 L 238.302 151.646 239.775 150.276 C 241.145 149.002,241.407 148.700,241.145 148.700 C 241.088 148.700,240.425 149.363,239.672 150.173 M259.770 151.213 L 258.752 152.340 259.879 151.322 C 260.498 150.762,261.005 150.255,261.005 150.195 C 261.005 149.927,260.719 150.163,259.770 151.213 M255.624 155.373 L 252.860 158.232 255.719 155.467 C 258.375 152.900,258.737 152.513,258.484 152.513 C 258.432 152.513,257.145 153.800,255.624 155.373 M168.284 156.672 C 169.029 157.435,169.716 158.059,169.811 158.059 C 169.907 158.059,169.375 157.435,168.631 156.672 C 167.886 155.910,167.199 155.286,167.104 155.286 C 167.008 155.286,167.540 155.910,168.284 156.672 M231.524 157.972 L 230.329 159.272 231.629 158.078 C 232.839 156.966,233.088 156.672,232.824 156.672 C 232.766 156.672,232.181 157.257,231.524 157.972 M148.873 158.752 C 149.618 159.515,150.305 160.139,150.401 160.139 C 150.496 160.139,149.965 159.515,149.220 158.752 C 148.475 157.990,147.788 157.366,147.693 157.366 C 147.598 157.366,148.129 157.990,148.873 158.752 M176.430 164.471 C 177.077 165.139,177.684 165.685,177.779 165.685 C 177.874 165.685,177.423 165.139,176.776 164.471 C 176.130 163.804,175.523 163.258,175.427 163.258 C 175.332 163.258,175.783 163.804,176.430 164.471 M208.611 165.165 C 208.546 166.214,208.609 167.072,208.752 167.072 C 208.895 167.071,209.012 166.213,209.012 165.165 C 209.012 162.704,208.764 162.704,208.611 165.165 M192.469 164.991 C 192.469 165.849,192.536 166.200,192.619 165.771 C 192.702 165.342,192.702 164.640,192.619 164.211 C 192.536 163.782,192.469 164.133,192.469 164.991 M223.898 165.251 L 222.704 166.551 224.003 165.357 C 225.213 164.245,225.463 163.951,225.198 163.951 C 225.140 163.951,224.555 164.536,223.898 165.251 M244.871 166.464 L 243.501 167.938 244.974 166.567 C 246.344 165.293,246.606 164.991,246.344 164.991 C 246.288 164.991,245.625 165.654,244.871 166.464 M156.846 167.071 C 157.590 167.834,158.278 168.458,158.373 168.458 C 158.468 168.458,157.937 167.834,157.192 167.071 C 156.448 166.308,155.761 165.685,155.665 165.685 C 155.570 165.685,156.101 166.308,156.846 167.071 M164.298 174.870 C 164.945 175.537,165.552 176.083,165.647 176.083 C 165.743 176.083,165.291 175.537,164.645 174.870 C 163.998 174.203,163.391 173.657,163.296 173.657 C 163.200 173.657,163.651 174.203,164.298 174.870 M236.723 174.957 L 235.529 176.256 236.828 175.062 C 238.038 173.950,238.288 173.657,238.023 173.657 C 237.965 173.657,237.380 174.242,236.723 174.957 M199.571 177.368 C 200.002 177.451,200.626 177.448,200.957 177.361 C 201.289 177.274,200.936 177.207,200.173 177.210 C 199.411 177.214,199.140 177.285,199.571 177.368 M235.968 191.239 C 236.591 191.316,237.527 191.315,238.048 191.236 C 238.569 191.156,238.059 191.093,236.915 191.095 C 235.771 191.097,235.345 191.162,235.968 191.239 M159.712 191.586 C 160.335 191.663,161.270 191.661,161.791 191.582 C 162.312 191.503,161.802 191.440,160.659 191.442 C 159.515 191.444,159.089 191.509,159.712 191.586 M250.873 191.586 C 251.496 191.663,252.432 191.661,252.952 191.582 C 253.473 191.503,252.964 191.440,251.820 191.442 C 250.676 191.444,250.250 191.509,250.873 191.586 M143.761 191.932 C 144.380 192.009,145.394 192.009,146.014 191.932 C 146.633 191.855,146.127 191.792,144.887 191.792 C 143.648 191.792,143.141 191.855,143.761 191.932 M266.984 191.934 C 267.699 192.008,268.869 192.008,269.584 191.934 C 270.299 191.859,269.714 191.798,268.284 191.798 C 266.854 191.798,266.269 191.859,266.984 191.934 M288.476 193.588 C 288.479 194.350,288.550 194.621,288.633 194.190 C 288.716 193.759,288.713 193.135,288.626 192.804 C 288.540 192.472,288.472 192.825,288.476 193.588 M42.028 192.973 C 42.743 193.048,43.912 193.048,44.627 192.973 C 45.342 192.899,44.757 192.838,43.328 192.838 C 41.898 192.838,41.313 192.899,42.028 192.973 M354.159 192.966 C 354.588 193.048,355.290 193.048,355.719 192.966 C 356.148 192.883,355.797 192.815,354.939 192.815 C 354.081 192.815,353.731 192.883,354.159 192.966 M67.671 194.107 C 67.671 194.775,67.743 195.048,67.830 194.714 C 67.917 194.380,67.917 193.834,67.830 193.501 C 67.743 193.167,67.671 193.440,67.671 194.107 M111.692 194.107 C 111.692 194.775,111.764 195.048,111.851 194.714 C 111.938 194.380,111.938 193.834,111.851 193.501 C 111.764 193.167,111.692 193.440,111.692 194.107 M341.174 195.667 C 341.176 196.620,341.244 196.969,341.323 196.442 C 341.403 195.915,341.401 195.136,341.319 194.709 C 341.236 194.283,341.171 194.714,341.174 195.667 M60.046 195.841 C 60.046 196.508,60.117 196.781,60.204 196.447 C 60.291 196.114,60.291 195.568,60.204 195.234 C 60.117 194.900,60.046 195.173,60.046 195.841 M292.975 195.841 C 292.975 196.508,293.046 196.781,293.133 196.447 C 293.220 196.114,293.220 195.568,293.133 195.234 C 293.046 194.900,292.975 195.173,292.975 195.841 M107.200 197.227 C 107.200 198.085,107.268 198.436,107.350 198.007 C 107.433 197.578,107.433 196.876,107.350 196.447 C 107.268 196.018,107.200 196.369,107.200 197.227 M295.771 197.574 C 295.771 198.622,295.836 199.051,295.916 198.527 C 295.995 198.003,295.995 197.145,295.916 196.620 C 295.836 196.096,295.771 196.525,295.771 197.574 M297.529 199.653 C 297.529 201.655,297.586 202.474,297.656 201.473 C 297.726 200.472,297.726 198.834,297.656 197.834 C 297.586 196.833,297.529 197.652,297.529 199.653 M336.006 200.000 C 336.006 202.192,336.063 203.089,336.131 201.993 C 336.200 200.897,336.200 199.103,336.131 198.007 C 336.063 196.911,336.006 197.808,336.006 200.000 M102.721 199.653 C 102.721 201.274,102.780 201.937,102.853 201.127 C 102.926 200.316,102.926 198.990,102.853 198.180 C 102.780 197.370,102.721 198.033,102.721 199.653 M104.798 200.173 C 104.799 201.698,104.860 202.279,104.934 201.464 C 105.007 200.649,105.006 199.401,104.931 198.691 C 104.857 197.981,104.797 198.648,104.798 200.173 M341.174 200.867 C 341.176 201.820,341.244 202.169,341.323 201.642 C 341.403 201.115,341.401 200.335,341.319 199.909 C 341.236 199.482,341.171 199.913,341.174 200.867 M107.205 202.253 C 107.207 203.206,107.275 203.555,107.354 203.028 C 107.434 202.501,107.432 201.721,107.350 201.295 C 107.267 200.869,107.202 201.300,107.205 202.253 M292.982 202.253 C 292.986 203.016,293.057 203.287,293.139 202.856 C 293.222 202.424,293.219 201.800,293.132 201.469 C 293.046 201.138,292.978 201.490,292.982 202.253 M295.766 202.600 C 295.769 203.553,295.836 203.902,295.916 203.375 C 295.996 202.848,295.994 202.068,295.911 201.642 C 295.829 201.215,295.764 201.646,295.766 202.600 M111.699 204.679 C 111.703 205.442,111.774 205.713,111.857 205.282 C 111.940 204.851,111.937 204.227,111.850 203.895 C 111.763 203.564,111.695 203.917,111.699 204.679 M288.469 205.199 C 288.469 205.867,288.540 206.140,288.627 205.806 C 288.714 205.472,288.714 204.926,288.627 204.593 C 288.540 204.259,288.469 204.532,288.469 205.199 M67.671 206.239 C 67.671 206.906,67.743 207.179,67.830 206.846 C 67.917 206.512,67.917 205.966,67.830 205.633 C 67.743 205.299,67.671 205.572,67.671 206.239 M122.617 206.830 C 123.046 206.913,123.748 206.913,124.177 206.830 C 124.606 206.748,124.255 206.680,123.397 206.680 C 122.539 206.680,122.188 206.748,122.617 206.830 M263.354 206.840 C 264.169 206.913,265.417 206.912,266.127 206.838 C 266.837 206.763,266.170 206.703,264.645 206.705 C 263.120 206.706,262.539 206.767,263.354 206.840 M139.948 207.183 C 140.568 207.260,141.581 207.260,142.201 207.183 C 142.821 207.106,142.314 207.043,141.075 207.043 C 139.835 207.043,139.328 207.106,139.948 207.183 M246.020 207.184 C 246.643 207.261,247.579 207.259,248.100 207.180 C 248.621 207.101,248.111 207.038,246.967 207.040 C 245.823 207.042,245.397 207.106,246.020 207.184 M155.552 207.530 C 156.175 207.607,157.111 207.606,157.632 207.527 C 158.153 207.448,157.643 207.384,156.499 207.386 C 155.355 207.388,154.929 207.453,155.552 207.530 M384.835 209.598 C 385.169 209.685,385.715 209.685,386.049 209.598 C 386.382 209.511,386.109 209.439,385.442 209.439 C 384.775 209.439,384.502 209.511,384.835 209.598 M336.488 211.343 C 337.111 211.420,338.047 211.419,338.568 211.340 C 339.089 211.260,338.579 211.197,337.435 211.199 C 336.291 211.201,335.865 211.266,336.488 211.343 M167.052 222.444 L 165.858 223.744 167.158 222.549 C 168.368 221.437,168.617 221.144,168.352 221.144 C 168.294 221.144,167.709 221.729,167.052 222.444 M236.742 225.477 C 237.388 226.144,237.996 226.690,238.091 226.690 C 238.186 226.690,237.735 226.144,237.088 225.477 C 236.442 224.809,235.835 224.263,235.739 224.263 C 235.644 224.263,236.095 224.809,236.742 225.477 M182.791 229.007 C 182.921 229.137,182.518 229.800,181.895 230.480 L 180.763 231.716 182.049 230.534 C 183.165 229.509,183.465 228.769,182.764 228.769 C 182.648 228.769,182.660 228.876,182.791 229.007 M159.427 230.416 L 158.232 231.716 159.532 230.521 C 160.742 229.409,160.991 229.116,160.727 229.116 C 160.669 229.116,160.084 229.701,159.427 230.416 M199.220 231.793 C 199.840 231.870,200.854 231.870,201.473 231.793 C 202.093 231.716,201.586 231.653,200.347 231.653 C 199.107 231.653,198.601 231.716,199.220 231.793 M244.194 233.276 C 244.939 234.038,245.626 234.662,245.721 234.662 C 245.817 234.662,245.285 234.038,244.541 233.276 C 243.796 232.513,243.109 231.889,243.014 231.889 C 242.918 231.889,243.449 232.513,244.194 233.276 M223.570 234.835 C 224.217 235.503,224.824 236.049,224.919 236.049 C 225.015 236.049,224.564 235.503,223.917 234.835 C 223.270 234.168,222.663 233.622,222.568 233.622 C 222.472 233.622,222.923 234.168,223.570 234.835 M208.080 236.568 C 208.082 237.712,208.146 238.138,208.223 237.515 C 208.301 236.892,208.299 235.957,208.220 235.436 C 208.141 234.915,208.078 235.425,208.080 236.568 M174.678 237.348 L 173.484 238.648 174.783 237.454 C 175.993 236.342,176.243 236.049,175.978 236.049 C 175.920 236.049,175.335 236.633,174.678 237.348 M150.421 239.775 L 148.527 241.768 150.520 239.873 C 151.616 238.831,152.513 237.934,152.513 237.880 C 152.513 237.623,152.182 237.923,150.421 239.775 M252.325 241.681 C 253.175 242.587,253.916 243.328,253.972 243.328 C 254.232 243.328,253.957 243.016,252.426 241.580 L 250.780 240.035 252.325 241.681 M231.542 242.461 C 232.189 243.128,232.796 243.674,232.892 243.674 C 232.987 243.674,232.536 243.128,231.889 242.461 C 231.242 241.794,230.635 241.248,230.540 241.248 C 230.445 241.248,230.896 241.794,231.542 242.461 M166.706 244.974 L 165.511 246.274 166.811 245.079 C 168.021 243.967,168.270 243.674,168.006 243.674 C 167.948 243.674,167.363 244.259,166.706 244.974 M192.139 246.447 C 192.139 247.686,192.202 248.193,192.278 247.574 C 192.355 246.954,192.355 245.940,192.278 245.321 C 192.202 244.701,192.139 245.208,192.139 246.447 M207.733 251.473 C 207.735 252.617,207.800 253.043,207.877 252.420 C 207.954 251.797,207.952 250.861,207.873 250.340 C 207.794 249.820,207.731 250.329,207.733 251.473 M241.075 251.646 C 242.013 252.600,242.860 253.380,242.955 253.380 C 243.050 253.380,242.360 252.600,241.421 251.646 C 240.482 250.693,239.636 249.913,239.541 249.913 C 239.445 249.913,240.136 250.693,241.075 251.646 M158.216 253.120 L 156.846 254.593 158.319 253.223 C 159.689 251.948,159.951 251.646,159.689 251.646 C 159.632 251.646,158.970 252.309,158.216 253.120 M135.009 261.005 C 135.753 261.768,136.441 262.392,136.536 262.392 C 136.631 262.392,136.100 261.768,135.355 261.005 C 134.611 260.243,133.923 259.619,133.828 259.619 C 133.733 259.619,134.264 260.243,135.009 261.005 M192.495 264.125 C 192.495 265.745,192.555 266.408,192.628 265.598 C 192.701 264.788,192.701 263.462,192.628 262.652 C 192.555 261.841,192.495 262.504,192.495 264.125 M139.515 265.511 C 140.259 266.274,140.947 266.898,141.042 266.898 C 141.137 266.898,140.606 266.274,139.861 265.511 C 139.117 264.749,138.429 264.125,138.334 264.125 C 138.239 264.125,138.770 264.749,139.515 265.511 M260.463 266.638 L 259.445 267.764 260.572 266.746 C 261.192 266.186,261.698 265.679,261.698 265.620 C 261.698 265.352,261.412 265.588,260.463 266.638 M207.393 268.111 C 207.394 269.445,207.457 269.949,207.532 269.230 C 207.607 268.511,207.606 267.419,207.529 266.803 C 207.453 266.188,207.391 266.776,207.393 268.111 M131.889 268.284 C 133.021 269.428,134.025 270.364,134.120 270.364 C 134.216 270.364,133.368 269.428,132.236 268.284 C 131.104 267.140,130.100 266.205,130.004 266.205 C 129.909 266.205,130.757 267.140,131.889 268.284 M146.084 271.339 C 146.232 271.600,146.074 272.117,145.714 272.552 C 145.100 273.293,145.105 273.293,145.927 272.534 C 146.627 271.887,146.689 271.686,146.296 271.321 C 145.916 270.968,145.875 270.971,146.084 271.339 M194.714 289.326 C 195.143 289.409,195.845 289.409,196.274 289.326 C 196.703 289.243,196.352 289.176,195.494 289.176 C 194.636 289.176,194.285 289.243,194.714 289.326 M203.726 289.326 C 204.155 289.409,204.857 289.409,205.286 289.326 C 205.715 289.243,205.364 289.176,204.506 289.176 C 203.648 289.176,203.297 289.243,203.726 289.326 M195.927 295.560 C 196.261 295.647,196.807 295.647,197.140 295.560 C 197.474 295.472,197.201 295.401,196.534 295.401 C 195.867 295.401,195.594 295.472,195.927 295.560 M203.730 295.566 C 204.161 295.649,204.785 295.646,205.117 295.559 C 205.448 295.472,205.095 295.404,204.333 295.408 C 203.570 295.412,203.299 295.483,203.730 295.566 M301.711 296.447 L 300.693 297.574 301.820 296.556 C 302.439 295.996,302.946 295.489,302.946 295.429 C 302.946 295.161,302.660 295.397,301.711 296.447 M195.581 296.599 C 195.914 296.687,196.460 296.687,196.794 296.599 C 197.127 296.512,196.854 296.441,196.187 296.441 C 195.520 296.441,195.247 296.512,195.581 296.599 M204.246 296.599 C 204.580 296.687,205.126 296.687,205.459 296.599 C 205.793 296.512,205.520 296.441,204.853 296.441 C 204.185 296.441,203.912 296.512,204.246 296.599 M101.040 299.133 C 102.364 300.468,103.526 301.560,103.621 301.560 C 103.716 301.560,102.711 300.468,101.386 299.133 C 100.062 297.799,98.901 296.707,98.805 296.707 C 98.710 296.707,99.716 297.799,101.040 299.133 M300.682 299.220 L 298.614 301.386 300.780 299.318 C 301.971 298.180,302.946 297.205,302.946 297.151 C 302.946 296.895,302.604 297.208,300.682 299.220 M100.347 300.173 C 101.285 301.127,102.132 301.906,102.227 301.906 C 102.322 301.906,101.632 301.127,100.693 300.173 C 99.754 299.220,98.908 298.440,98.813 298.440 C 98.718 298.440,99.408 299.220,100.347 300.173 M297.898 300.260 L 296.880 301.386 298.007 300.368 C 298.627 299.808,299.133 299.302,299.133 299.242 C 299.133 298.974,298.847 299.210,297.898 300.260 M83.524 305.633 L 81.629 307.626 83.622 305.731 C 84.718 304.689,85.615 303.792,85.615 303.738 C 85.615 303.481,85.284 303.781,83.524 305.633 M288.720 305.459 C 290.157 306.990,290.468 307.265,290.468 307.005 C 290.468 306.949,289.727 306.208,288.821 305.358 L 287.175 303.813 288.720 305.459 M188.661 337.088 C 188.663 338.042,188.731 338.390,188.810 337.864 C 188.890 337.337,188.888 336.557,188.806 336.130 C 188.723 335.704,188.658 336.135,188.661 337.088 M211.673 335.767 C 211.897 335.927,212.149 336.679,212.233 337.440 C 212.385 338.811,212.386 338.810,212.345 337.289 C 212.318 336.244,212.139 335.711,211.785 335.616 C 211.428 335.520,211.393 335.567,211.673 335.767 M323.050 337.370 C 323.050 337.430,323.557 337.937,324.177 338.497 L 325.303 339.515 324.285 338.388 C 323.336 337.338,323.050 337.102,323.050 337.370 M66.291 341.660 C 66.625 341.747,67.171 341.747,67.504 341.660 C 67.838 341.573,67.565 341.502,66.898 341.502 C 66.231 341.502,65.958 341.573,66.291 341.660 M197.834 341.666 C 198.263 341.748,198.964 341.748,199.393 341.666 C 199.822 341.583,199.471 341.516,198.614 341.516 C 197.756 341.516,197.405 341.583,197.834 341.666 M204.077 341.666 C 204.508 341.749,205.132 341.746,205.463 341.659 C 205.795 341.573,205.442 341.505,204.679 341.509 C 203.917 341.512,203.646 341.583,204.077 341.666 M332.326 342.360 C 332.758 342.442,333.381 342.439,333.713 342.353 C 334.044 342.266,333.692 342.198,332.929 342.202 C 332.166 342.206,331.895 342.277,332.326 342.360 M190.406 385.442 C 190.406 386.681,190.468 387.188,190.545 386.568 C 190.622 385.949,190.622 384.935,190.545 384.315 C 190.468 383.696,190.406 384.203,190.406 385.442 M210.479 386.828 C 210.479 387.496,210.550 387.769,210.638 387.435 C 210.725 387.101,210.725 386.555,210.638 386.222 C 210.550 385.888,210.479 386.161,210.479 386.828 " stroke="none" fill="#7c5e1f" fill-rule="evenodd"></path><path id="path3" d="M198.007 59.867 C 198.531 59.946,199.389 59.946,199.913 59.867 C 200.438 59.788,200.009 59.723,198.960 59.723 C 197.912 59.723,197.483 59.788,198.007 59.867 M106.223 106.499 L 104.853 107.972 106.326 106.602 C 107.696 105.328,107.958 105.026,107.696 105.026 C 107.639 105.026,106.976 105.689,106.223 106.499 M197.660 110.118 C 197.994 110.205,198.540 110.205,198.873 110.118 C 199.207 110.030,198.934 109.959,198.267 109.959 C 197.600 109.959,197.327 110.030,197.660 110.118 M208.060 125.303 C 208.064 126.066,208.135 126.337,208.217 125.906 C 208.300 125.475,208.297 124.851,208.210 124.519 C 208.124 124.188,208.056 124.541,208.060 125.303 M341.155 198.267 C 341.155 198.934,341.226 199.207,341.313 198.873 C 341.401 198.540,341.401 197.994,341.313 197.660 C 341.226 197.327,341.155 197.600,341.155 198.267 M267.855 206.831 C 268.286 206.914,268.910 206.911,269.241 206.824 C 269.573 206.737,269.220 206.669,268.458 206.673 C 267.695 206.677,267.424 206.748,267.855 206.831 M192.455 267.938 C 192.455 268.605,192.526 268.878,192.613 268.544 C 192.700 268.211,192.700 267.665,192.613 267.331 C 192.526 266.997,192.455 267.270,192.455 267.938 M200.785 289.330 C 201.312 289.410,202.091 289.408,202.518 289.325 C 202.944 289.243,202.513 289.178,201.560 289.181 C 200.607 289.183,200.258 289.251,200.785 289.330 M200.780 341.669 C 201.304 341.749,202.162 341.749,202.686 341.669 C 203.211 341.590,202.782 341.525,201.733 341.525 C 200.685 341.525,200.256 341.590,200.780 341.669 " stroke="none" fill="#654c1c" fill-rule="evenodd"></path><path id="path4" d="M190.028 13.518 C 190.028 14.185,190.100 14.458,190.187 14.125 C 190.274 13.791,190.274 13.245,190.187 12.912 C 190.100 12.578,190.028 12.851,190.028 13.518 M66.469 57.784 C 66.900 57.867,67.524 57.864,67.855 57.777 C 68.186 57.690,67.834 57.623,67.071 57.626 C 66.308 57.630,66.037 57.701,66.469 57.784 M197.660 58.831 C 198.375 58.906,199.545 58.906,200.260 58.831 C 200.975 58.757,200.390 58.695,198.960 58.695 C 197.530 58.695,196.945 58.757,197.660 58.831 M195.581 59.858 C 195.914 59.945,196.460 59.945,196.794 59.858 C 197.127 59.770,196.854 59.699,196.187 59.699 C 195.520 59.699,195.247 59.770,195.581 59.858 M201.304 59.864 C 201.735 59.947,202.359 59.944,202.690 59.857 C 203.022 59.770,202.669 59.702,201.906 59.706 C 201.144 59.710,200.873 59.781,201.304 59.864 M188.309 63.085 C 188.309 63.943,188.377 64.294,188.460 63.865 C 188.542 63.436,188.542 62.734,188.460 62.305 C 188.377 61.876,188.309 62.227,188.309 63.085 M297.054 97.162 C 297.054 97.222,297.561 97.729,298.180 98.289 L 299.307 99.307 298.289 98.180 C 297.340 97.130,297.054 96.894,297.054 97.162 M298.440 100.000 C 299.476 101.049,300.401 101.906,300.496 101.906 C 300.592 101.906,299.822 101.049,298.787 100.000 C 297.751 98.951,296.826 98.094,296.731 98.094 C 296.635 98.094,297.405 98.951,298.440 100.000 M299.480 99.589 C 299.480 99.648,299.987 100.155,300.607 100.715 L 301.733 101.733 300.715 100.607 C 299.766 99.557,299.480 99.321,299.480 99.589 M204.246 102.145 C 204.580 102.233,205.126 102.233,205.459 102.145 C 205.793 102.058,205.520 101.987,204.853 101.987 C 204.185 101.987,203.912 102.058,204.246 102.145 M108.644 104.073 L 107.626 105.199 108.752 104.181 C 109.802 103.232,110.038 102.946,109.770 102.946 C 109.711 102.946,109.204 103.453,108.644 104.073 M102.751 104.766 L 101.733 105.893 102.860 104.874 C 103.910 103.926,104.145 103.640,103.878 103.640 C 103.818 103.640,103.311 104.146,102.751 104.766 M199.573 106.664 C 200.196 106.741,201.132 106.739,201.653 106.660 C 202.174 106.581,201.664 106.518,200.520 106.520 C 199.376 106.522,198.950 106.587,199.573 106.664 M200.091 110.127 C 200.618 110.207,201.398 110.205,201.825 110.123 C 202.251 110.040,201.820 109.975,200.867 109.978 C 199.913 109.980,199.565 110.048,200.091 110.127 M305.530 111.352 L 304.159 112.825 305.633 111.455 C 306.443 110.701,307.106 110.038,307.106 109.982 C 307.106 109.719,306.804 109.982,305.530 111.352 M198.700 111.176 C 199.987 111.242,202.093 111.242,203.380 111.176 C 204.666 111.109,203.614 111.054,201.040 111.054 C 198.466 111.054,197.413 111.109,198.700 111.176 M193.181 128.769 C 193.183 130.104,193.246 130.607,193.321 129.888 C 193.396 129.169,193.394 128.077,193.318 127.462 C 193.241 126.847,193.180 127.435,193.181 128.769 M134.489 133.969 C 133.647 134.827,133.036 135.529,133.131 135.529 C 133.227 135.529,133.993 134.827,134.835 133.969 C 135.677 133.111,136.288 132.409,136.193 132.409 C 136.098 132.409,135.331 133.111,134.489 133.969 M153.726 142.461 C 154.858 143.605,155.862 144.541,155.958 144.541 C 156.053 144.541,155.205 143.605,154.073 142.461 C 152.941 141.317,151.937 140.381,151.841 140.381 C 151.746 140.381,152.594 141.317,153.726 142.461 M208.426 144.367 C 208.428 145.511,208.493 145.937,208.570 145.314 C 208.647 144.691,208.646 143.756,208.567 143.235 C 208.487 142.714,208.424 143.224,208.426 144.367 M192.825 145.581 C 192.825 146.629,192.890 147.058,192.969 146.534 C 193.049 146.010,193.049 145.152,192.969 144.627 C 192.890 144.103,192.825 144.532,192.825 145.581 M243.138 146.707 L 241.768 148.180 243.241 146.810 C 244.611 145.536,244.873 145.234,244.611 145.234 C 244.554 145.234,243.892 145.897,243.138 146.707 M164.991 153.380 C 165.638 154.047,166.245 154.593,166.340 154.593 C 166.436 154.593,165.985 154.047,165.338 153.380 C 164.691 152.712,164.084 152.166,163.989 152.166 C 163.893 152.166,164.345 152.712,164.991 153.380 M145.061 154.939 C 145.805 155.702,146.493 156.326,146.588 156.326 C 146.683 156.326,146.152 155.702,145.407 154.939 C 144.663 154.177,143.975 153.553,143.880 153.553 C 143.785 153.553,144.316 154.177,145.061 154.939 M234.467 155.026 L 233.449 156.153 234.575 155.134 C 235.195 154.575,235.702 154.068,235.702 154.008 C 235.702 153.740,235.416 153.976,234.467 155.026 M208.769 160.485 C 208.769 161.534,208.834 161.963,208.914 161.438 C 208.993 160.914,208.993 160.056,208.914 159.532 C 208.834 159.008,208.769 159.437,208.769 160.485 M192.473 160.659 C 192.476 161.612,192.543 161.961,192.623 161.434 C 192.703 160.907,192.701 160.127,192.618 159.701 C 192.536 159.274,192.471 159.705,192.473 160.659 M172.617 160.594 C 172.617 160.653,173.124 161.160,173.744 161.720 L 174.870 162.738 173.852 161.612 C 172.903 160.562,172.617 160.326,172.617 160.594 M226.841 162.305 L 225.823 163.432 226.950 162.413 C 227.569 161.854,228.076 161.347,228.076 161.287 C 228.076 161.019,227.790 161.255,226.841 162.305 M248.162 163.172 L 246.967 164.471 248.267 163.277 C 249.477 162.165,249.726 161.872,249.461 161.872 C 249.403 161.872,248.819 162.457,248.162 163.172 M152.860 163.020 C 152.860 163.080,153.367 163.587,153.986 164.147 L 155.113 165.165 154.095 164.038 C 153.146 162.988,152.860 162.752,152.860 163.020 M198.354 168.003 C 198.687 168.090,199.233 168.090,199.567 168.003 C 199.900 167.916,199.627 167.845,198.960 167.845 C 198.293 167.845,198.020 167.916,198.354 168.003 M180.589 168.219 C 180.589 168.279,181.096 168.786,181.716 169.346 L 182.842 170.364 181.824 169.237 C 180.875 168.187,180.589 167.952,180.589 168.219 M239.843 171.837 L 238.648 173.137 239.948 171.942 C 241.158 170.831,241.407 170.537,241.143 170.537 C 241.085 170.537,240.500 171.122,239.843 171.837 M160.485 170.992 C 160.485 171.052,160.992 171.559,161.612 172.119 L 162.738 173.137 161.720 172.010 C 160.771 170.960,160.485 170.725,160.485 170.992 M176.581 175.477 L 175.563 176.603 176.690 175.585 C 177.309 175.025,177.816 174.518,177.816 174.459 C 177.816 174.191,177.530 174.427,176.581 175.477 M177.451 177.383 L 176.256 178.683 177.556 177.488 C 178.766 176.377,179.016 176.083,178.751 176.083 C 178.693 176.083,178.108 176.668,177.451 177.383 M167.764 178.618 C 167.764 178.678,168.271 179.185,168.891 179.745 L 170.017 180.763 168.999 179.636 C 168.050 178.586,167.764 178.350,167.764 178.618 M240.993 191.237 C 241.520 191.316,242.299 191.314,242.726 191.232 C 243.152 191.150,242.721 191.084,241.768 191.087 C 240.815 191.090,240.466 191.157,240.993 191.237 M154.679 191.583 C 155.204 191.662,156.062 191.662,156.586 191.583 C 157.110 191.503,156.681 191.438,155.633 191.438 C 154.584 191.438,154.155 191.503,154.679 191.583 M255.893 191.583 C 256.417 191.662,257.275 191.662,257.799 191.583 C 258.323 191.503,257.894 191.438,256.846 191.438 C 255.797 191.438,255.368 191.503,255.893 191.583 M137.514 191.931 C 138.129 192.008,139.221 192.009,139.940 191.934 C 140.659 191.859,140.156 191.796,138.821 191.795 C 137.487 191.793,136.899 191.855,137.514 191.931 M273.917 191.936 C 274.822 192.007,276.304 192.007,277.210 191.936 C 278.115 191.864,277.374 191.806,275.563 191.806 C 273.752 191.806,273.011 191.864,273.917 191.936 M298.197 197.574 C 298.197 198.622,298.262 199.051,298.342 198.527 C 298.421 198.003,298.421 197.145,298.342 196.620 C 298.262 196.096,298.197 196.525,298.197 197.574 M340.148 198.094 C 340.150 199.428,340.213 199.932,340.288 199.212 C 340.363 198.493,340.361 197.401,340.285 196.786 C 340.208 196.171,340.147 196.759,340.148 198.094 M64.205 197.574 C 64.205 198.241,64.277 198.514,64.364 198.180 C 64.451 197.847,64.451 197.301,64.364 196.967 C 64.277 196.633,64.205 196.906,64.205 197.574 M103.404 199.653 C 103.404 200.893,103.467 201.399,103.544 200.780 C 103.621 200.160,103.621 199.146,103.544 198.527 C 103.467 197.907,103.404 198.414,103.404 199.653 M166.130 199.133 C 166.133 200.087,166.200 200.435,166.280 199.909 C 166.360 199.382,166.357 198.602,166.275 198.175 C 166.193 197.749,166.128 198.180,166.130 199.133 M234.076 199.480 C 234.078 200.624,234.143 201.050,234.220 200.427 C 234.297 199.804,234.296 198.868,234.216 198.347 C 234.137 197.826,234.074 198.336,234.076 199.480 M168.218 199.827 C 168.220 200.971,168.285 201.397,168.362 200.774 C 168.439 200.151,168.438 199.215,168.359 198.694 C 168.279 198.173,168.216 198.683,168.218 199.827 M222.629 199.827 C 222.632 200.780,222.699 201.129,222.779 200.602 C 222.859 200.075,222.857 199.295,222.774 198.869 C 222.692 198.442,222.627 198.873,222.629 199.827 M298.197 201.733 C 298.197 202.782,298.262 203.211,298.342 202.686 C 298.421 202.162,298.421 201.304,298.342 200.780 C 298.262 200.256,298.197 200.685,298.197 201.733 M271.490 206.842 C 272.587 206.911,274.380 206.911,275.477 206.842 C 276.573 206.773,275.676 206.717,273.484 206.717 C 271.291 206.717,270.394 206.773,271.490 206.842 M134.402 207.183 C 135.022 207.260,136.036 207.260,136.655 207.183 C 137.275 207.106,136.768 207.043,135.529 207.043 C 134.289 207.043,133.782 207.106,134.402 207.183 M251.566 207.184 C 252.189 207.261,253.125 207.259,253.646 207.180 C 254.167 207.101,253.657 207.038,252.513 207.040 C 251.369 207.042,250.943 207.106,251.566 207.184 M150.520 207.527 C 151.044 207.607,151.902 207.607,152.426 207.527 C 152.951 207.448,152.522 207.383,151.473 207.383 C 150.425 207.383,149.996 207.448,150.520 207.527 M235.789 207.527 C 236.313 207.607,237.171 207.607,237.695 207.527 C 238.219 207.448,237.790 207.383,236.742 207.383 C 235.693 207.383,235.264 207.448,235.789 207.527 M165.255 207.871 C 165.687 207.954,166.310 207.951,166.642 207.864 C 166.973 207.777,166.620 207.709,165.858 207.713 C 165.095 207.717,164.824 207.788,165.255 207.871 M61.958 211.683 C 62.387 211.766,63.089 211.766,63.518 211.683 C 63.947 211.600,63.596 211.533,62.738 211.533 C 61.880 211.533,61.529 211.600,61.958 211.683 M109.619 212.024 C 109.952 212.111,110.498 212.111,110.832 212.024 C 111.166 211.937,110.893 211.866,110.225 211.866 C 109.558 211.866,109.285 211.937,109.619 212.024 M216.096 215.685 L 215.078 216.811 216.205 215.793 C 217.255 214.844,217.490 214.558,217.223 214.558 C 217.163 214.558,216.656 215.065,216.096 215.685 M231.542 219.866 C 231.542 219.925,232.049 220.432,232.669 220.992 L 233.795 222.010 232.777 220.884 C 231.828 219.834,231.542 219.598,231.542 219.866 M223.898 224.523 L 222.704 225.823 224.003 224.629 C 225.213 223.517,225.463 223.224,225.198 223.224 C 225.140 223.224,224.555 223.808,223.898 224.523 M164.103 225.390 L 163.085 226.516 164.211 225.498 C 165.262 224.549,165.497 224.263,165.229 224.263 C 165.170 224.263,164.663 224.770,164.103 225.390 M238.821 227.491 C 238.821 227.551,239.328 228.058,239.948 228.618 L 241.075 229.636 240.056 228.510 C 239.107 227.459,238.821 227.224,238.821 227.491 M155.961 233.882 L 154.766 235.182 156.066 233.987 C 157.276 232.876,157.525 232.582,157.260 232.582 C 157.202 232.582,156.618 233.167,155.961 233.882 M191.785 236.049 C 191.785 237.097,191.850 237.526,191.929 237.002 C 192.009 236.477,192.009 235.620,191.929 235.095 C 191.850 234.571,191.785 235.000,191.785 236.049 M246.447 235.464 C 246.447 235.523,246.954 236.030,247.574 236.590 L 248.700 237.608 247.682 236.482 C 246.733 235.432,246.447 235.196,246.447 235.464 M225.650 236.850 C 225.650 236.910,226.157 237.417,226.776 237.977 L 227.903 238.995 226.885 237.868 C 225.936 236.818,225.650 236.582,225.650 236.850 M171.729 240.295 L 170.711 241.421 171.837 240.403 C 172.887 239.454,173.123 239.168,172.855 239.168 C 172.795 239.168,172.289 239.675,171.729 240.295 M208.071 241.421 C 208.074 242.374,208.141 242.723,208.221 242.196 C 208.301 241.669,208.299 240.889,208.216 240.463 C 208.134 240.037,208.069 240.468,208.071 241.421 M144.188 246.014 L 140.555 249.740 144.281 246.107 C 147.742 242.732,148.164 242.288,147.914 242.288 C 147.863 242.288,146.186 243.964,144.188 246.014 M256.138 245.494 C 257.574 247.024,257.886 247.300,257.886 247.039 C 257.886 246.984,257.145 246.243,256.239 245.393 L 254.593 243.847 256.138 245.494 M235.009 245.927 C 235.655 246.594,236.263 247.140,236.358 247.140 C 236.453 247.140,236.002 246.594,235.355 245.927 C 234.709 245.260,234.101 244.714,234.006 244.714 C 233.911 244.714,234.362 245.260,235.009 245.927 M163.756 247.920 L 162.738 249.047 163.865 248.029 C 164.915 247.080,165.151 246.794,164.883 246.794 C 164.823 246.794,164.316 247.301,163.756 247.920 M192.132 251.646 C 192.132 252.695,192.197 253.124,192.276 252.600 C 192.355 252.075,192.355 251.218,192.276 250.693 C 192.197 250.169,192.132 250.598,192.132 251.646 M246.620 257.192 C 248.137 258.718,249.455 259.965,249.550 259.965 C 249.646 259.965,248.483 258.718,246.967 257.192 C 245.451 255.667,244.132 254.419,244.037 254.419 C 243.942 254.419,245.104 255.667,246.620 257.192 M207.733 256.672 C 207.735 257.816,207.800 258.242,207.877 257.619 C 207.954 256.996,207.952 256.061,207.873 255.540 C 207.794 255.019,207.731 255.529,207.733 256.672 M154.246 257.019 C 153.404 257.877,152.793 258.579,152.889 258.579 C 152.984 258.579,153.751 257.877,154.593 257.019 C 155.435 256.161,156.046 255.459,155.950 255.459 C 155.855 255.459,155.088 256.161,154.246 257.019 M266.018 265.945 L 264.298 267.764 266.118 266.044 C 267.809 264.446,268.097 264.125,267.838 264.125 C 267.783 264.125,266.964 264.944,266.018 265.945 M132.756 267.418 C 133.984 268.657,135.067 269.671,135.162 269.671 C 135.257 269.671,134.330 268.657,133.102 267.418 C 131.874 266.179,130.791 265.165,130.696 265.165 C 130.601 265.165,131.527 266.179,132.756 267.418 M131.369 268.804 C 132.016 269.471,132.623 270.017,132.718 270.017 C 132.814 270.017,132.362 269.471,131.716 268.804 C 131.069 268.137,130.462 267.591,130.367 267.591 C 130.271 267.591,130.722 268.137,131.369 268.804 M192.507 272.964 C 192.507 275.251,192.563 276.142,192.631 274.943 C 192.699 273.744,192.699 271.872,192.630 270.784 C 192.562 269.695,192.506 270.676,192.507 272.964 M207.404 275.217 C 207.404 277.028,207.462 277.769,207.534 276.863 C 207.605 275.958,207.605 274.476,207.534 273.570 C 207.462 272.665,207.404 273.406,207.404 275.217 M197.675 288.299 C 198.969 288.366,200.997 288.365,202.181 288.298 C 203.364 288.230,202.305 288.176,199.827 288.176 C 197.348 288.177,196.380 288.232,197.675 288.299 M199.567 292.792 C 199.996 292.875,200.698 292.875,201.127 292.792 C 201.555 292.710,201.205 292.642,200.347 292.642 C 199.489 292.642,199.138 292.710,199.567 292.792 M103.986 296.187 C 105.022 297.236,105.947 298.094,106.042 298.094 C 106.137 298.094,105.368 297.236,104.333 296.187 C 103.297 295.139,102.372 294.281,102.277 294.281 C 102.181 294.281,102.951 295.139,103.986 296.187 M199.567 295.565 C 199.996 295.648,200.698 295.648,201.127 295.565 C 201.555 295.483,201.205 295.415,200.347 295.415 C 199.489 295.415,199.138 295.483,199.567 295.565 M306.051 315.858 C 306.901 316.763,307.642 317.504,307.698 317.504 C 307.958 317.504,307.683 317.193,306.153 315.757 L 304.506 314.211 306.051 315.858 M198.885 333.012 C 199.892 333.082,201.452 333.081,202.351 333.010 C 203.250 332.939,202.426 332.881,200.520 332.882 C 198.614 332.883,197.878 332.941,198.885 333.012 M200.616 340.636 C 201.431 340.709,202.679 340.708,203.389 340.633 C 204.099 340.559,203.432 340.499,201.906 340.500 C 200.381 340.501,199.800 340.562,200.616 340.636 M193.533 357.192 C 193.534 358.718,193.595 359.298,193.668 358.483 C 193.742 357.668,193.741 356.420,193.666 355.710 C 193.592 355.000,193.532 355.667,193.533 357.192 " stroke="none" fill="#5a4414" fill-rule="evenodd"></path></g></svg>