<svg id="svg" version="1.1" xmlns="http://www.w3.org/2000/svg" xmlns:xlink="http://www.w3.org/1999/xlink" width="400" height="400" viewBox="0, 0, 400,400"><g id="svgg"><path id="path0" d="M246.796 102.341 C 241.230 103.321,230.898 108.926,220.681 116.507 C 218.724 117.959,216.934 119.030,216.704 118.888 C 216.474 118.746,216.397 118.810,216.534 119.032 C 216.671 119.253,215.512 120.368,213.958 121.509 C 212.404 122.650,210.506 124.122,209.740 124.780 C 208.974 125.438,207.587 126.592,206.659 127.344 C 205.731 128.096,204.733 128.942,204.442 129.224 C 204.151 129.506,203.708 129.611,203.458 129.457 C 203.187 129.289,203.109 129.346,203.266 129.599 C 203.550 130.059,199.737 133.467,199.136 133.291 C 198.935 133.232,198.870 133.346,198.993 133.545 C 199.305 134.049,196.534 136.405,196.010 136.081 C 195.775 135.936,195.683 135.979,195.806 136.178 C 196.099 136.652,191.558 141.155,191.083 140.862 C 190.676 140.610,188.672 142.046,188.672 142.589 C 188.672 142.778,189.122 142.483,189.672 141.933 C 190.222 141.383,190.772 141.032,190.893 141.153 C 191.014 141.275,190.530 141.865,189.817 142.464 C 189.105 143.064,188.178 143.906,187.758 144.336 C 187.338 144.766,187.135 144.870,187.308 144.569 C 187.519 144.198,187.472 144.112,187.163 144.303 C 186.912 144.458,186.789 144.720,186.891 144.884 C 187.168 145.333,183.794 148.502,183.410 148.153 C 183.227 147.987,183.187 148.043,183.320 148.276 C 183.633 148.828,182.483 150.475,181.995 150.173 C 181.789 150.046,181.670 150.095,181.729 150.283 C 181.788 150.470,181.015 151.494,180.012 152.558 C 179.009 153.622,177.802 154.986,177.329 155.590 C 176.828 156.230,176.235 156.599,175.909 156.474 C 175.601 156.355,175.456 156.431,175.587 156.643 C 175.929 157.196,173.803 159.840,173.202 159.609 C 172.896 159.492,172.776 159.623,172.898 159.941 C 173.009 160.231,172.885 160.601,172.623 160.763 C 172.291 160.968,172.242 160.890,172.463 160.510 C 172.652 160.185,172.636 160.094,172.426 160.286 C 172.230 160.465,172.070 160.747,172.070 160.912 C 172.070 161.461,165.539 169.134,165.233 168.944 C 164.836 168.699,163.995 169.724,164.324 170.053 C 164.701 170.430,163.244 171.898,162.778 171.610 C 162.544 171.466,162.499 171.558,162.669 171.832 C 162.908 172.219,161.559 174.339,159.286 177.148 C 151.150 187.204,144.141 200.526,144.141 205.931 C 144.141 218.488,153.266 222.677,179.297 222.073 C 186.064 221.916,191.899 221.795,192.262 221.805 C 192.747 221.818,193.202 220.975,193.979 218.626 C 194.995 215.552,199.652 202.398,200.164 201.153 C 200.433 200.502,199.988 200.533,186.523 202.106 C 178.924 202.993,170.450 203.590,167.483 203.447 L 164.850 203.320 168.665 197.656 C 170.764 194.541,173.793 190.322,175.397 188.281 C 177.982 184.991,179.183 183.547,183.815 178.159 C 192.612 167.928,213.558 147.765,219.026 144.263 C 219.626 143.879,220.380 143.312,220.702 143.003 C 224.821 139.045,238.832 130.635,240.621 131.048 C 241.229 131.188,241.412 131.147,241.102 130.939 C 240.542 130.563,242.080 129.688,243.300 129.688 C 243.676 129.688,244.151 129.540,244.355 129.359 C 244.560 129.178,245.781 128.795,247.070 128.508 C 249.259 128.020,250.606 127.858,253.205 127.770 C 254.753 127.718,258.664 123.305,260.265 119.803 C 260.639 118.986,261.075 118.398,261.234 118.496 C 261.393 118.595,261.584 116.714,261.657 114.318 C 261.734 111.825,261.984 109.710,262.243 109.375 C 262.636 108.866,262.606 108.859,262.018 109.320 C 261.425 109.785,261.295 109.737,260.967 108.929 C 260.762 108.422,260.246 107.499,259.823 106.878 C 259.399 106.256,259.141 105.465,259.250 105.120 C 259.406 104.626,259.368 104.605,259.070 105.022 C 258.813 105.383,258.608 105.417,258.431 105.130 C 257.339 103.364,250.413 101.704,246.796 102.341 M216.551 199.118 L 213.375 199.249 212.571 201.480 C 211.437 204.629,205.859 221.154,205.859 221.366 C 205.859 221.599,214.801 221.041,215.860 220.742 C 216.315 220.613,218.152 218.750,219.941 216.602 C 225.088 210.422,228.376 206.733,232.388 202.637 L 236.118 198.828 227.922 198.908 C 223.415 198.951,218.297 199.046,216.551 199.118 M249.695 204.960 C 249.437 206.207,248.245 210.303,247.046 214.063 C 239.893 236.502,242.181 241.519,255.958 233.608 C 263.747 229.136,272.020 222.308,271.454 220.819 C 270.992 219.604,269.148 216.150,268.488 215.263 C 263.536 208.609,256.869 203.699,251.743 202.930 L 250.165 202.694 249.695 204.960 M239.031 207.304 C 238.535 208.121,236.304 211.223,234.074 214.198 C 230.069 219.539,230.035 219.603,231.318 219.340 C 235.354 218.513,235.458 218.437,236.371 215.665 C 236.837 214.246,237.893 211.514,238.716 209.592 C 240.339 205.802,240.455 204.959,239.031 207.304 M232.228 236.228 C 228.050 242.847,212.340 255.348,202.089 260.210 C 196.189 263.008,189.747 264.748,189.378 263.643 C 189.301 263.412,188.411 263.951,187.400 264.841 C 183.116 268.613,182.852 276.806,186.889 280.693 C 198.843 292.202,252.332 264.536,264.240 240.684 C 266.820 235.518,266.787 235.334,263.668 237.515 C 250.975 246.393,237.716 246.468,234.596 237.680 C 234.217 236.614,233.793 235.434,233.653 235.057 C 233.449 234.507,233.168 234.738,232.228 236.228 M194.438 284.261 C 194.924 284.354,195.627 284.351,196.001 284.253 C 196.374 284.155,195.977 284.079,195.117 284.083 C 194.258 284.087,193.952 284.167,194.438 284.261 " stroke="none" fill="#39a3fb" fill-rule="evenodd"></path><path id="path1" d="M230.183 145.353 C 228.932 146.154,223.926 152.612,221.503 156.550 C 220.790 157.709,220.063 158.486,219.827 158.340 C 219.582 158.188,219.525 158.267,219.689 158.532 C 220.095 159.190,217.506 163.384,217.068 162.779 C 216.836 162.460,216.794 162.526,216.941 162.982 C 217.072 163.391,216.080 165.678,214.439 168.750 C 212.943 171.549,211.719 174.023,211.719 174.247 C 211.719 174.472,211.545 174.548,211.333 174.417 C 211.103 174.275,211.051 174.450,211.204 174.848 C 211.392 175.339,211.322 175.433,210.944 175.199 C 210.606 174.991,210.520 175.031,210.694 175.313 C 210.842 175.552,210.540 176.590,210.022 177.620 C 209.505 178.650,208.586 180.668,207.980 182.105 C 207.374 183.542,206.748 184.636,206.588 184.538 C 206.428 184.439,206.320 184.670,206.348 185.050 C 206.376 185.431,204.768 189.873,202.776 194.922 C 200.784 199.971,197.847 207.881,196.250 212.500 C 194.653 217.119,193.154 221.338,192.920 221.875 C 190.057 228.437,187.903 241.227,189.351 243.066 C 189.563 243.335,189.851 244.035,189.991 244.622 C 191.007 248.876,196.201 250.967,200.586 248.888 C 208.714 245.034,229.003 222.988,239.030 207.114 C 240.731 204.421,240.925 204.726,239.514 207.873 C 228.777 231.803,233.319 247.901,249.648 243.791 C 253.178 242.902,260.727 239.386,264.844 236.712 C 272.695 231.612,277.400 228.288,281.957 224.623 C 283.348 223.505,283.702 223.369,284.001 223.842 C 284.287 224.294,284.364 224.232,284.369 223.549 C 284.376 222.588,285.697 221.674,286.914 221.789 C 287.663 221.859,287.664 221.849,286.947 221.548 C 286.276 221.266,286.363 221.102,287.796 219.951 C 289.585 218.513,290.401 216.907,290.430 214.769 C 290.441 213.975,290.377 213.399,290.288 213.488 C 290.199 213.577,289.610 213.216,288.978 212.684 C 287.162 211.156,285.129 211.351,282.547 213.300 C 281.396 214.169,280.254 214.757,280.010 214.606 C 279.748 214.445,279.674 214.506,279.829 214.756 C 279.978 214.998,278.875 216.128,277.252 217.393 C 275.691 218.610,273.639 220.328,272.692 221.211 C 270.061 223.663,262.611 229.530,259.766 231.392 C 243.069 242.316,239.273 237.779,246.482 215.514 C 251.040 201.435,251.791 196.941,249.963 194.691 C 249.772 194.456,249.746 194.134,249.906 193.974 C 250.065 193.815,250.020 193.736,249.805 193.798 C 249.590 193.860,248.808 193.588,248.067 193.194 C 245.538 191.850,243.821 192.143,240.988 194.403 C 235.728 198.599,226.325 208.876,214.436 223.425 C 207.549 231.853,201.314 238.181,200.611 237.455 C 200.127 236.956,214.936 194.040,218.522 185.547 C 219.656 182.861,221.160 179.217,221.863 177.447 C 222.611 175.565,223.309 174.334,223.545 174.480 C 223.767 174.618,223.836 174.547,223.698 174.324 C 223.328 173.725,224.221 171.440,224.708 171.741 C 224.943 171.886,225.006 171.811,224.855 171.566 C 224.499 170.990,227.352 165.193,227.842 165.496 C 228.053 165.627,228.141 165.490,228.036 165.191 C 227.800 164.521,230.323 159.375,230.887 159.375 C 231.112 159.375,231.214 159.243,231.114 159.081 C 230.792 158.559,235.134 152.284,235.613 152.580 C 235.893 152.753,235.951 152.681,235.769 152.387 C 235.610 152.129,235.758 151.493,236.099 150.973 C 238.605 147.148,234.085 142.854,230.183 145.353 " stroke="none" fill="#fbb71b" fill-rule="evenodd"></path><path id="path2" d="M306.879 12.868 C 306.973 12.962,304.805 13.425,302.060 13.895 C 299.316 14.366,295.889 15.049,294.445 15.413 C 293.000 15.777,291.638 15.964,291.417 15.827 C 291.196 15.691,291.016 15.732,291.016 15.920 C 291.016 16.414,283.684 18.457,283.105 18.124 C 282.837 17.970,282.754 17.994,282.921 18.178 C 283.283 18.575,271.519 22.721,270.780 22.457 C 270.501 22.356,270.358 22.414,270.463 22.584 C 270.763 23.070,264.305 25.453,263.448 25.173 C 262.920 25.000,262.847 25.035,263.204 25.292 C 263.572 25.556,263.139 25.880,261.641 26.463 C 260.502 26.905,259.234 27.403,258.823 27.567 C 258.249 27.797,258.142 27.738,258.363 27.312 C 258.522 27.007,258.404 27.059,258.101 27.428 C 257.799 27.796,255.053 29.162,252.000 30.463 C 248.946 31.763,243.992 33.975,240.990 35.377 C 237.988 36.780,235.332 37.804,235.088 37.653 C 234.836 37.498,234.752 37.552,234.892 37.780 C 235.204 38.283,229.039 41.144,228.440 40.774 C 228.200 40.626,228.109 40.674,228.237 40.881 C 228.542 41.375,222.749 44.238,222.144 43.891 C 221.889 43.745,221.812 43.770,221.973 43.948 C 222.134 44.126,218.882 46.014,214.746 48.145 C 210.610 50.276,205.334 53.068,203.022 54.350 C 200.709 55.631,198.617 56.556,198.372 56.405 C 198.127 56.253,198.028 56.294,198.152 56.495 C 198.453 56.981,183.678 65.332,183.123 64.990 C 182.886 64.843,182.798 64.895,182.927 65.104 C 183.057 65.314,180.931 66.784,178.203 68.372 C 175.474 69.959,172.196 71.930,170.918 72.750 C 169.639 73.571,168.355 74.151,168.065 74.040 C 167.775 73.928,167.639 74.002,167.764 74.204 C 168.065 74.691,166.512 75.502,165.947 75.153 C 165.689 74.994,165.611 75.053,165.761 75.294 C 166.100 75.843,158.375 80.621,157.762 80.242 C 157.490 80.074,157.405 80.125,157.553 80.366 C 157.870 80.878,152.535 84.149,151.961 83.794 C 151.731 83.652,151.591 83.768,151.650 84.053 C 151.710 84.338,151.457 84.547,151.090 84.519 C 150.722 84.490,150.458 84.604,150.504 84.772 C 150.579 85.051,144.779 89.063,144.301 89.063 C 144.187 89.063,144.220 88.860,144.373 88.612 C 144.547 88.330,144.480 88.267,144.195 88.443 C 143.943 88.599,143.828 88.872,143.938 89.051 C 144.219 89.505,141.442 91.084,140.925 90.764 C 140.688 90.618,140.616 90.686,140.761 90.920 C 141.072 91.422,136.079 94.665,135.524 94.322 C 135.311 94.190,135.185 94.315,135.244 94.600 C 135.303 94.884,135.051 95.094,134.683 95.065 C 134.316 95.037,134.052 95.213,134.097 95.456 C 134.145 95.709,133.763 95.856,133.203 95.800 C 132.507 95.729,132.382 95.801,132.768 96.051 C 133.205 96.333,133.158 96.481,132.526 96.819 C 132.096 97.050,131.632 97.127,131.497 96.991 C 131.361 96.856,131.250 96.946,131.250 97.192 C 131.250 97.809,123.011 103.287,122.176 103.225 C 121.804 103.197,121.381 103.366,121.236 103.601 C 121.079 103.856,121.154 103.915,121.424 103.748 C 121.672 103.595,121.875 103.552,121.875 103.654 C 121.875 104.146,116.735 107.430,116.343 107.188 C 116.074 107.021,116.001 107.082,116.162 107.342 C 116.436 107.786,115.141 108.710,114.700 108.385 C 114.564 108.285,114.539 108.318,114.644 108.459 C 114.961 108.884,111.771 111.016,111.276 110.710 C 110.998 110.538,110.921 110.595,111.080 110.852 C 111.385 111.346,105.265 115.889,104.562 115.690 C 104.309 115.618,104.230 115.689,104.387 115.846 C 104.776 116.234,100.773 119.181,100.275 118.874 C 100.057 118.739,99.992 118.812,100.131 119.036 C 100.440 119.536,99.490 120.381,98.789 120.229 C 98.508 120.167,98.270 120.319,98.260 120.566 C 98.233 121.243,91.380 126.593,90.911 126.303 C 90.688 126.164,90.617 126.234,90.756 126.458 C 91.097 127.010,89.994 127.874,89.410 127.512 C 89.125 127.336,89.044 127.388,89.203 127.646 C 89.491 128.112,85.352 131.513,84.711 131.338 C 84.494 131.279,84.416 131.391,84.537 131.587 C 84.659 131.784,84.145 132.412,83.395 132.984 C 82.645 133.556,81.045 134.887,79.839 135.943 C 78.633 136.998,77.446 137.824,77.202 137.778 C 76.958 137.733,76.790 137.880,76.829 138.106 C 76.918 138.614,64.847 149.455,64.358 149.307 C 64.164 149.248,64.098 149.351,64.213 149.536 C 64.505 150.009,61.547 152.817,61.143 152.449 C 60.961 152.284,60.921 152.340,61.054 152.573 C 61.361 153.113,58.463 155.979,58.018 155.574 C 57.836 155.409,57.820 155.503,57.982 155.783 C 58.171 156.112,57.598 157.015,56.370 158.322 C 35.438 180.606,35.736 204.270,57.117 217.694 C 58.985 218.866,60.389 219.963,60.237 220.132 C 60.085 220.300,60.166 220.320,60.416 220.177 C 61.020 219.832,63.001 220.599,62.712 221.066 C 62.589 221.266,62.693 221.558,62.945 221.713 C 63.230 221.890,63.297 221.826,63.123 221.545 C 62.970 221.297,63.015 221.094,63.223 221.094 C 64.003 221.094,67.945 222.769,67.783 223.031 C 67.690 223.181,68.002 223.273,68.475 223.236 C 68.949 223.198,70.303 223.499,71.484 223.904 C 81.563 227.358,102.190 230.385,116.406 230.496 C 118.877 230.515,122.305 230.649,124.023 230.793 C 125.742 230.937,128.027 230.948,129.102 230.817 C 130.176 230.687,131.257 230.738,131.505 230.931 C 131.775 231.142,132.010 231.134,132.091 230.911 C 132.166 230.706,134.089 230.479,136.366 230.406 L 140.506 230.273 139.389 232.031 C 138.774 232.998,136.833 236.107,135.076 238.941 C 133.318 241.775,131.767 244.024,131.630 243.939 C 131.493 243.854,131.380 244.014,131.380 244.294 C 131.380 244.575,129.446 248.127,127.082 252.187 C 124.717 256.248,122.022 261.013,121.091 262.775 C 120.161 264.538,119.226 265.873,119.014 265.742 C 118.803 265.611,118.742 265.686,118.879 265.908 C 119.016 266.131,117.982 268.715,116.580 271.652 C 105.030 295.843,106.209 305.787,120.606 305.587 C 122.927 305.554,123.766 305.668,123.604 305.994 C 123.481 306.242,123.612 306.168,123.897 305.829 C 124.181 305.491,125.229 305.010,126.226 304.761 C 130.629 303.660,137.962 299.884,146.533 294.304 C 148.673 292.911,150.619 291.892,150.858 292.040 C 151.109 292.194,151.184 292.132,151.035 291.892 C 150.891 291.658,151.594 290.956,152.635 290.293 C 153.656 289.643,155.261 288.576,156.201 287.922 C 157.141 287.268,158.068 286.830,158.261 286.950 C 158.455 287.070,158.565 286.995,158.506 286.785 C 158.358 286.257,161.659 283.901,162.134 284.195 C 162.346 284.326,162.471 284.200,162.412 283.916 C 162.353 283.630,162.608 283.422,162.984 283.452 C 163.358 283.481,163.585 283.379,163.490 283.225 C 163.120 282.626,171.155 277.207,171.564 277.780 C 171.872 278.212,171.909 278.194,171.748 277.687 C 171.602 277.226,173.103 275.897,177.264 272.804 C 180.407 270.467,184.364 267.368,186.057 265.918 C 188.893 263.488,190.295 262.625,189.612 263.731 C 189.221 264.363,191.752 263.919,195.790 262.648 C 206.770 259.193,223.903 246.911,231.480 237.064 L 233.373 234.604 233.652 229.509 C 233.806 226.707,234.264 223.140,234.670 221.582 C 235.327 219.061,235.341 218.752,234.794 218.764 C 234.066 218.780,229.643 219.814,229.534 219.993 C 224.489 228.299,206.825 245.930,200.586 248.888 C 196.201 250.967,191.007 248.876,189.991 244.622 C 189.620 243.071,189.445 242.880,188.850 243.374 C 188.556 243.618,188.105 243.687,187.847 243.528 C 187.554 243.347,187.482 243.404,187.654 243.683 C 187.998 244.239,184.366 247.715,183.696 247.470 C 183.430 247.373,183.254 247.486,183.305 247.721 C 183.494 248.587,169.783 259.967,169.078 259.531 C 168.817 259.370,168.735 259.426,168.882 259.664 C 169.022 259.890,167.133 261.664,164.659 263.630 C 160.321 267.077,159.414 267.682,159.998 266.737 C 160.172 266.455,160.105 266.392,159.820 266.568 C 159.568 266.724,159.458 267.006,159.575 267.195 C 159.844 267.630,158.403 268.429,158.027 268.053 C 157.873 267.899,157.806 268.037,157.878 268.359 C 157.957 268.719,157.745 268.925,157.328 268.892 C 156.955 268.862,156.733 268.974,156.835 269.140 C 157.130 269.616,146.151 277.816,145.641 277.501 C 145.376 277.337,145.298 277.394,145.450 277.641 C 145.684 278.020,141.432 281.406,141.118 281.092 C 140.812 280.786,141.946 278.953,142.305 279.174 C 142.534 279.316,142.577 279.221,142.408 278.947 C 141.912 278.144,153.310 257.248,154.009 257.681 C 154.247 257.828,154.301 257.745,154.139 257.483 C 153.796 256.928,154.829 255.362,155.273 255.764 C 155.450 255.924,155.470 255.838,155.317 255.574 C 154.952 254.938,161.333 244.104,161.887 244.419 C 162.117 244.550,162.180 244.518,162.027 244.349 C 161.490 243.753,164.077 239.625,164.659 240.150 C 164.830 240.304,164.849 240.220,164.702 239.964 C 164.322 239.301,174.517 223.511,175.937 222.565 C 176.173 222.407,173.990 222.275,171.084 222.272 C 156.531 222.255,148.974 219.400,145.658 212.663 C 142.860 206.979,144.179 199.317,149.217 191.995 C 149.904 190.996,150.405 190.135,150.331 190.080 C 150.175 189.965,146.291 189.382,138.477 188.300 C 132.605 187.487,117.368 185.740,112.391 185.310 C 110.720 185.165,109.265 184.903,109.156 184.728 C 109.048 184.553,108.699 184.509,108.382 184.631 C 106.748 185.258,99.972 183.883,100.549 183.042 C 100.857 182.593,101.299 182.271,101.531 182.324 C 101.763 182.378,101.909 182.202,101.855 181.934 C 101.802 181.665,101.991 181.494,102.275 181.553 C 102.560 181.612,102.685 181.486,102.554 181.273 C 102.179 180.667,111.510 171.309,112.116 171.684 C 112.422 171.873,112.525 171.841,112.377 171.602 C 112.064 171.095,113.819 169.428,114.252 169.821 C 114.431 169.984,114.464 169.917,114.324 169.673 C 114.066 169.220,117.499 166.127,118.058 166.309 C 118.224 166.362,118.315 166.187,118.262 165.918 C 118.208 165.649,118.470 165.454,118.843 165.483 C 119.217 165.513,119.433 165.392,119.324 165.215 C 119.051 164.773,126.533 158.529,126.994 158.814 C 127.197 158.940,127.315 158.869,127.256 158.656 C 127.058 157.943,131.728 154.597,132.134 155.161 C 132.397 155.528,132.438 155.485,132.284 155.003 C 131.994 154.096,136.694 150.540,137.220 151.269 C 137.471 151.615,137.513 151.567,137.365 151.104 C 137.122 150.341,138.838 149.034,139.525 149.458 C 139.788 149.621,139.856 149.555,139.694 149.293 C 139.536 149.037,140.199 148.288,141.294 147.485 C 143.242 146.056,143.994 145.750,143.515 146.582 C 143.352 146.866,143.383 146.934,143.590 146.745 C 143.785 146.566,143.948 146.302,143.951 146.159 C 143.963 145.669,144.577 144.922,144.968 144.922 C 145.183 144.922,145.233 145.125,145.080 145.373 C 144.906 145.655,144.973 145.718,145.259 145.541 C 145.510 145.386,145.629 145.118,145.523 144.946 C 145.417 144.775,147.953 142.852,151.158 140.673 C 157.141 136.607,158.597 135.765,158.012 136.713 C 157.797 137.060,157.843 137.137,158.149 136.947 C 158.401 136.792,158.517 136.520,158.408 136.343 C 158.298 136.166,159.360 135.299,160.768 134.417 C 163.480 132.716,163.886 132.541,163.439 133.263 C 163.261 133.552,163.333 133.608,163.638 133.420 C 163.900 133.258,164.014 133.024,163.891 132.901 C 163.541 132.551,166.931 130.445,167.501 130.659 C 167.780 130.764,167.912 130.693,167.794 130.502 C 167.569 130.137,174.013 126.132,183.496 120.742 C 189.235 117.481,189.694 117.263,189.221 118.029 C 189.042 118.317,189.114 118.374,189.419 118.185 C 189.681 118.023,189.797 117.792,189.676 117.671 C 189.555 117.550,189.987 117.128,190.636 116.733 C 192.000 115.903,192.346 115.833,191.955 116.467 C 191.781 116.748,191.848 116.811,192.134 116.635 C 192.385 116.479,192.501 116.207,192.391 116.030 C 192.127 115.602,193.315 115.161,193.846 115.489 C 194.076 115.631,194.148 115.563,194.008 115.336 C 193.704 114.843,194.819 114.343,195.408 114.708 C 195.648 114.856,195.710 114.780,195.554 114.527 C 195.266 114.062,199.015 111.937,199.545 112.265 C 199.708 112.366,200.097 112.268,200.409 112.047 C 200.851 111.734,200.803 111.702,200.195 111.900 C 198.495 112.456,200.507 111.249,208.789 106.745 C 224.240 98.341,228.879 96.035,229.809 96.296 C 230.369 96.453,230.492 96.415,230.165 96.187 C 228.620 95.109,271.544 77.087,273.705 77.906 C 273.960 78.002,274.224 77.915,274.291 77.712 C 274.944 75.754,284.964 75.658,291.992 77.542 C 301.070 79.976,304.043 80.476,311.194 80.775 C 314.880 80.929,317.832 80.952,317.754 80.826 C 317.675 80.700,318.755 80.387,320.152 80.129 C 321.550 79.872,323.686 79.222,324.900 78.685 C 326.113 78.149,327.374 77.812,327.701 77.938 C 328.029 78.064,328.171 78.041,328.018 77.887 C 327.864 77.734,328.815 76.905,330.131 76.045 C 334.508 73.185,340.932 65.840,342.000 62.475 C 342.134 62.053,342.434 61.825,342.667 61.969 C 342.899 62.113,342.978 62.050,342.842 61.830 C 342.707 61.610,343.114 60.010,343.747 58.275 C 347.430 48.182,347.532 35.484,343.988 28.138 C 343.438 26.999,343.100 25.870,343.236 25.631 C 343.373 25.391,343.338 25.329,343.158 25.491 C 342.748 25.864,341.368 23.816,341.684 23.304 C 341.813 23.096,341.732 23.041,341.506 23.181 C 341.064 23.454,338.672 20.967,338.672 20.234 C 338.672 19.991,338.565 19.898,338.435 20.029 C 338.305 20.159,337.821 19.908,337.361 19.470 C 336.900 19.033,335.715 18.209,334.726 17.639 C 333.738 17.068,332.888 16.426,332.838 16.211 C 332.788 15.996,332.646 15.732,332.522 15.625 C 332.398 15.518,332.442 15.679,332.619 15.984 C 332.871 16.419,332.779 16.468,332.193 16.211 C 330.107 15.297,325.085 13.687,324.293 13.680 C 323.797 13.676,323.480 13.528,323.589 13.352 C 323.698 13.176,323.244 13.112,322.580 13.209 C 321.876 13.312,321.469 13.232,321.603 13.015 C 321.744 12.786,318.949 12.654,314.269 12.670 C 310.110 12.684,306.784 12.773,306.879 12.868 M287.533 77.093 C 287.622 77.171,288.223 77.352,288.867 77.496 C 289.723 77.687,289.881 77.651,289.453 77.362 C 288.926 77.005,287.141 76.755,287.533 77.093 M217.296 188.509 C 216.604 190.210,215.436 193.285,214.701 195.343 L 213.364 199.084 224.748 198.908 L 236.133 198.733 238.086 196.916 C 239.160 195.917,240.613 194.658,241.314 194.118 C 242.251 193.396,242.406 193.134,241.900 193.128 C 240.012 193.107,233.848 191.267,234.586 190.944 C 235.143 190.701,235.007 190.662,234.088 190.802 C 233.383 190.909,231.655 190.641,230.182 190.196 C 220.151 187.168,218.800 186.683,218.680 186.063 C 218.611 185.707,217.988 186.808,217.296 188.509 M171.566 193.474 C 168.901 197.143,165.235 202.788,165.234 203.223 C 165.234 203.965,177.641 203.150,190.513 201.562 C 193.996 201.133,197.511 200.779,198.325 200.775 C 199.139 200.772,200.000 200.640,200.238 200.482 C 200.715 200.167,203.566 193.280,203.322 193.035 C 203.179 192.892,195.695 192.207,187.600 191.596 C 185.614 191.446,184.086 191.166,184.205 190.974 C 184.324 190.782,184.235 190.625,184.007 190.625 C 183.780 190.625,183.594 190.767,183.594 190.941 C 183.594 191.115,182.319 191.115,180.762 190.941 C 179.204 190.767,177.022 190.545,175.912 190.446 L 173.895 190.268 171.566 193.474 M208.789 221.458 L 205.664 221.680 203.088 229.492 C 201.672 233.789,200.567 237.372,200.635 237.455 C 201.309 238.287,213.716 225.349,215.669 221.777 C 216.083 221.020,215.413 220.989,208.789 221.458 M278.808 227.051 C 276.515 228.823,272.899 231.416,270.772 232.813 C 266.985 235.299,266.878 235.411,265.634 238.183 C 260.040 250.652,245.125 263.961,225.426 274.064 L 220.275 276.706 218.561 279.857 C 215.305 285.840,212.657 293.900,212.449 298.458 C 212.382 299.916,212.126 300.718,211.549 301.282 C 210.882 301.932,210.861 302.027,211.426 301.828 C 212.980 301.280,211.952 302.033,209.912 302.935 C 207.448 304.024,207.276 304.068,207.617 303.516 C 207.750 303.301,207.595 303.125,207.273 303.125 C 206.950 303.125,206.561 303.328,206.408 303.576 C 206.235 303.855,206.301 303.921,206.580 303.748 C 206.828 303.595,207.031 303.644,207.031 303.857 C 207.031 304.378,205.590 304.808,205.021 304.457 C 204.754 304.292,204.672 304.346,204.821 304.587 C 205.182 305.171,192.387 309.872,191.279 309.562 C 190.754 309.415,190.612 309.452,190.907 309.659 C 191.508 310.081,182.628 313.064,181.974 312.660 C 181.724 312.506,181.624 312.547,181.750 312.752 C 182.154 313.406,160.579 319.242,159.009 318.903 C 158.197 318.728,158.118 318.772,158.594 319.137 C 159.065 319.498,158.935 319.557,157.931 319.434 C 157.244 319.351,156.758 319.406,156.852 319.557 C 156.946 319.709,156.629 319.921,156.148 320.029 C 148.028 321.851,145.945 322.228,144.851 322.071 C 143.813 321.923,143.749 321.946,144.531 322.191 C 145.858 322.607,132.784 325.433,130.957 325.125 C 129.998 324.964,129.688 325.053,129.688 325.492 C 129.688 326.131,126.851 326.772,126.051 326.313 C 125.795 326.166,125.726 326.200,125.898 326.388 C 126.233 326.756,118.480 328.636,117.958 328.313 C 117.786 328.207,117.586 328.262,117.514 328.436 C 117.442 328.609,115.449 329.256,113.086 329.873 C 110.723 330.490,106.504 331.776,103.711 332.732 C 100.918 333.687,98.210 334.465,97.694 334.460 C 97.178 334.454,96.954 334.573,97.197 334.723 C 97.452 334.881,96.525 335.545,95.011 336.289 C 72.316 347.445,76.690 376.131,102.136 383.019 C 103.640 383.426,104.565 383.867,104.417 384.106 C 104.266 384.350,104.421 384.411,104.810 384.262 C 105.163 384.126,106.994 384.349,108.878 384.758 C 122.295 387.664,136.382 387.541,155.772 384.346 C 159.699 383.699,163.110 383.292,163.352 383.442 C 163.600 383.595,163.685 383.541,163.547 383.318 C 163.400 383.079,164.581 382.646,166.514 382.230 C 168.281 381.850,172.451 380.738,175.781 379.759 C 179.111 378.779,182.446 378.001,183.191 378.030 C 184.223 378.069,184.409 377.985,183.972 377.679 C 183.524 377.364,183.590 377.318,184.278 377.469 C 184.762 377.575,185.068 377.517,184.958 377.340 C 184.683 376.895,188.546 375.657,189.114 376.008 C 189.378 376.171,189.470 376.125,189.331 375.900 C 189.033 375.417,192.029 374.466,192.647 374.847 C 192.908 375.008,192.982 374.947,192.828 374.698 C 192.681 374.460,192.954 374.155,193.451 374.001 C 197.500 372.745,213.411 365.285,220.441 361.347 C 222.768 360.043,224.861 359.094,225.092 359.236 C 225.322 359.379,225.410 359.332,225.287 359.133 C 224.946 358.581,231.496 354.664,232.317 354.929 C 232.797 355.084,232.858 355.044,232.518 354.798 C 232.172 354.548,233.666 353.337,237.596 350.682 C 243.236 346.871,251.722 340.280,255.251 336.968 C 257.208 335.132,257.694 334.791,257.189 335.607 C 257.015 335.889,257.082 335.952,257.368 335.776 C 257.619 335.620,257.743 335.360,257.643 335.197 C 257.542 335.035,258.664 333.707,260.135 332.247 L 262.811 329.592 268.417 328.660 C 271.501 328.147,274.282 327.827,274.597 327.947 C 274.913 328.068,275.038 328.033,274.875 327.870 C 274.485 327.480,286.312 324.520,287.081 324.815 C 287.406 324.939,287.540 324.910,287.380 324.750 C 287.220 324.590,289.872 323.546,293.273 322.430 C 323.540 312.504,351.569 295.540,350.683 287.684 C 349.961 281.274,342.987 280.984,333.502 286.972 C 332.677 287.493,331.789 287.796,331.528 287.647 C 331.268 287.497,331.189 287.522,331.353 287.703 C 331.807 288.203,326.511 291.032,325.586 290.784 C 325.083 290.649,324.975 290.694,325.283 290.909 C 325.930 291.363,320.194 294.205,319.249 293.900 C 318.781 293.749,318.711 293.790,319.033 294.023 C 319.675 294.489,313.956 297.334,312.999 297.025 C 312.522 296.871,312.457 296.911,312.791 297.153 C 314.020 298.041,290.594 307.011,288.545 306.437 C 287.970 306.276,287.861 306.314,288.207 306.555 C 288.559 306.800,287.584 307.226,285.082 307.919 C 280.005 309.326,278.748 309.556,279.080 309.020 C 279.229 308.778,279.542 308.699,279.775 308.843 C 280.019 308.994,280.087 308.924,279.936 308.679 C 279.678 308.263,282.725 303.129,282.999 303.516 C 283.076 303.623,283.285 303.551,283.464 303.355 C 283.656 303.145,283.568 303.128,283.250 303.312 C 282.954 303.484,282.787 303.468,282.880 303.277 C 286.219 296.406,287.287 293.933,288.595 290.039 C 296.118 267.657,294.697 246.110,284.479 227.615 C 283.552 225.937,282.896 224.399,283.022 224.197 C 283.447 223.509,282.980 223.825,278.808 227.051 M135.259 231.140 C 135.853 231.229,136.732 231.227,137.212 231.134 C 137.693 231.042,137.207 230.968,136.133 230.971 C 135.059 230.974,134.666 231.050,135.259 231.140 M187.584 242.058 C 187.537 242.632,187.620 242.979,187.769 242.830 C 188.168 242.431,188.327 241.016,187.973 241.016 C 187.807 241.016,187.632 241.485,187.584 242.058 " stroke="none" fill="#eef9f7" fill-rule="evenodd"></path><path id="path3" d="" stroke="none" fill="#949f94" fill-rule="evenodd"></path><path id="path4" d="M261.817 113.086 C 261.822 113.945,261.902 114.251,261.995 113.765 C 262.088 113.279,262.085 112.576,261.987 112.202 C 261.889 111.829,261.813 112.227,261.817 113.086 M207.401 154.199 L 206.055 155.664 207.520 154.318 C 208.883 153.065,209.164 152.734,208.866 152.734 C 208.800 152.734,208.141 153.394,207.401 154.199 M201.355 159.863 L 199.023 162.305 201.465 159.973 C 202.808 158.691,203.906 157.592,203.906 157.532 C 203.906 157.243,203.521 157.595,201.355 159.863 M191.004 170.215 L 188.477 172.852 191.113 170.324 C 192.563 168.934,193.750 167.747,193.750 167.687 C 193.750 167.400,193.352 167.766,191.004 170.215 M184.094 222.163 C 185.121 222.243,186.703 222.242,187.609 222.160 C 188.516 222.079,187.676 222.012,185.742 222.014 C 183.809 222.015,183.067 222.082,184.094 222.163 M196.973 283.472 C 197.349 283.571,197.964 283.571,198.340 283.472 C 198.716 283.374,198.408 283.294,197.656 283.294 C 196.904 283.294,196.597 283.374,196.973 283.472 " stroke="none" fill="#90c1e5" fill-rule="evenodd"></path></g></svg>