<svg id="svg" version="1.1" xmlns="http://www.w3.org/2000/svg" xmlns:xlink="http://www.w3.org/1999/xlink" width="400" height="444.6533490011751" viewBox="0, 0, 400,444.6533490011751"><g id="svgg"><path id="path0" d="M204.573 171.343 C 202.596 172.240,200.338 175.448,199.193 178.989 C 198.910 179.863,198.455 180.802,198.181 181.076 C 197.907 181.350,197.369 182.570,196.986 183.787 C 196.604 185.004,196.168 186.000,196.019 186.000 C 195.870 186.000,195.322 187.215,194.801 188.700 C 194.280 190.185,193.458 192.210,192.975 193.200 C 192.492 194.190,191.778 195.990,191.389 197.200 C 191.000 198.410,190.557 199.490,190.405 199.600 C 190.252 199.710,189.634 201.239,189.031 202.999 C 188.428 204.758,187.790 206.378,187.614 206.599 C 187.438 206.819,186.870 208.350,186.353 210.000 C 185.835 211.650,185.301 213.090,185.165 213.200 C 184.715 213.564,183.499 217.689,183.528 218.754 C 183.543 219.329,183.389 220.160,183.184 220.600 C 182.652 221.744,176.989 238.937,176.202 241.800 C 175.838 243.120,175.118 244.830,174.602 245.600 C 174.055 246.416,173.308 248.662,172.812 250.982 C 172.344 253.173,171.811 255.153,171.628 255.382 C 171.444 255.612,170.802 258.590,170.201 262.000 C 169.600 265.410,168.916 268.608,168.683 269.107 C 168.095 270.360,168.063 281.542,168.646 281.915 C 168.891 282.072,169.204 282.560,169.342 283.001 C 170.346 286.226,176.669 285.748,180.849 282.131 C 182.430 280.762,183.527 279.600,187.768 274.800 C 188.254 274.250,189.090 273.171,189.626 272.402 C 190.161 271.633,190.915 270.767,191.300 270.479 C 191.685 270.191,192.000 269.708,192.000 269.406 C 192.000 269.105,192.450 268.504,193.000 268.071 C 193.550 267.639,194.000 267.168,194.000 267.025 C 194.000 266.770,197.141 262.424,198.824 260.350 C 199.293 259.773,199.884 258.936,200.138 258.490 C 200.803 257.322,205.570 251.011,207.098 249.275 C 207.812 248.464,208.397 247.581,208.398 247.314 C 208.399 247.047,208.760 246.635,209.200 246.400 C 209.640 246.165,210.005 245.753,210.010 245.486 C 210.016 245.219,210.916 243.923,212.010 242.607 C 213.105 241.291,214.000 239.938,214.000 239.600 C 214.000 238.813,216.400 235.883,220.478 231.693 C 224.173 227.896,226.000 226.444,226.000 227.305 C 226.000 228.328,221.651 241.591,221.021 242.492 C 220.679 242.979,220.400 243.773,220.400 244.256 C 220.400 244.738,220.220 245.193,219.999 245.267 C 219.779 245.340,219.104 247.830,218.499 250.800 C 217.895 253.770,217.285 256.290,217.144 256.400 C 216.005 257.288,215.848 271.226,216.969 271.899 C 217.244 272.065,218.046 273.292,218.752 274.627 C 222.049 280.868,231.293 283.086,240.400 279.821 C 242.050 279.229,243.850 278.704,244.400 278.653 C 245.890 278.515,247.600 277.955,247.600 277.605 C 247.600 277.436,248.185 277.066,248.900 276.784 C 249.615 276.502,251.233 275.580,252.495 274.735 C 253.758 273.891,254.954 273.200,255.153 273.200 C 255.353 273.200,255.940 272.753,256.458 272.207 C 256.976 271.661,257.562 271.211,257.760 271.207 C 258.122 271.200,261.244 268.751,264.200 266.155 C 271.485 259.757,275.084 256.272,277.460 253.316 C 278.307 252.262,279.140 251.296,279.311 251.170 C 280.196 250.514,280.099 246.923,279.173 246.061 C 277.503 244.505,272.725 245.250,271.468 247.262 C 271.215 247.668,270.820 248.000,270.591 248.000 C 270.362 248.000,269.191 248.912,267.987 250.026 C 266.784 251.141,265.170 252.637,264.400 253.351 C 263.630 254.066,262.280 255.234,261.400 255.947 C 260.520 256.661,259.260 257.688,258.600 258.229 C 255.638 260.660,252.163 263.185,251.768 263.192 C 251.530 263.196,251.094 263.650,250.800 264.201 C 249.879 265.921,241.137 270.164,236.480 271.151 C 225.303 273.520,224.359 269.398,231.191 248.043 C 234.381 238.072,236.000 231.288,236.000 227.886 C 236.000 226.166,236.148 225.244,236.400 225.400 C 236.620 225.536,236.800 225.457,236.800 225.224 C 236.800 224.991,236.620 224.800,236.400 224.800 C 236.180 224.800,236.000 224.377,236.000 223.860 C 236.000 217.626,225.590 213.181,220.985 217.449 C 220.421 217.972,219.777 218.400,219.556 218.400 C 219.334 218.400,219.256 218.567,219.382 218.770 C 219.508 218.974,218.208 220.549,216.495 222.270 C 213.219 225.560,208.536 231.225,204.649 236.600 C 203.376 238.360,201.923 240.018,201.420 240.285 C 200.917 240.552,200.206 241.401,199.840 242.172 C 199.474 242.944,198.955 243.715,198.687 243.887 C 198.419 244.059,197.975 244.605,197.700 245.100 C 196.526 247.214,196.164 247.770,195.536 248.431 C 195.170 248.814,194.565 249.775,194.190 250.564 C 193.815 251.354,193.358 252.000,193.173 252.000 C 192.989 252.000,192.559 252.585,192.219 253.300 C 191.879 254.015,191.134 255.140,190.562 255.800 C 189.991 256.460,189.185 257.658,188.772 258.463 C 188.359 259.268,187.874 259.988,187.695 260.063 C 187.515 260.138,187.015 260.762,186.584 261.449 C 184.652 264.528,182.542 267.443,181.900 267.923 C 181.515 268.210,181.200 268.735,181.200 269.089 C 181.200 269.444,181.093 269.626,180.962 269.495 C 180.661 269.194,181.979 260.670,182.368 260.400 C 182.527 260.290,183.156 257.860,183.767 255.000 C 184.378 252.140,185.025 249.620,185.203 249.400 C 185.688 248.804,186.808 244.233,186.736 243.145 C 186.609 241.214,194.442 218.507,195.556 217.575 C 195.967 217.231,196.811 215.341,197.430 213.375 C 198.050 211.409,198.670 209.710,198.809 209.600 C 198.948 209.490,199.494 208.140,200.023 206.600 C 200.552 205.060,201.096 203.710,201.233 203.600 C 201.369 203.490,201.984 201.870,202.600 200.000 C 203.216 198.130,203.837 196.510,203.982 196.400 C 204.126 196.290,204.756 194.670,205.381 192.800 C 206.007 190.930,206.645 189.310,206.800 189.200 C 206.955 189.090,207.399 188.010,207.786 186.800 C 208.174 185.590,208.721 184.230,209.003 183.778 C 211.051 180.495,212.146 173.563,210.866 171.983 C 209.949 170.849,206.447 170.494,204.573 171.343 " stroke="none" fill="#fbcb44" fill-rule="evenodd"></path><path id="path1" d="M224.200 120.642 C 223.760 120.752,223.040 120.998,222.600 121.190 C 222.160 121.381,220.495 121.917,218.900 122.380 C 217.305 122.844,216.000 123.369,216.000 123.548 C 216.000 123.727,214.740 124.380,213.200 125.000 C 211.660 125.620,210.400 126.283,210.400 126.473 C 210.400 126.664,209.969 126.984,209.441 127.184 C 208.209 127.653,203.255 130.916,202.158 131.982 C 201.695 132.432,201.136 132.800,200.916 132.800 C 200.697 132.800,200.076 133.205,199.537 133.700 C 198.998 134.195,197.768 135.140,196.803 135.800 C 195.838 136.460,194.639 137.360,194.139 137.800 C 193.638 138.240,192.661 139.050,191.967 139.600 C 190.072 141.101,188.041 142.847,186.499 144.300 C 185.741 145.015,185.031 145.600,184.921 145.600 C 183.848 145.600,157.699 171.774,153.885 176.665 C 153.398 177.289,152.505 178.221,151.900 178.736 C 151.295 179.250,150.800 179.847,150.800 180.062 C 150.800 180.278,150.215 181.042,149.500 181.760 C 148.268 182.998,147.201 184.226,144.712 187.269 C 144.113 188.001,142.514 189.950,141.157 191.600 C 139.800 193.250,138.406 195.050,138.059 195.600 C 137.712 196.150,136.927 197.129,136.314 197.776 C 135.701 198.423,135.200 199.133,135.200 199.354 C 135.200 199.575,134.768 200.216,134.241 200.778 C 133.713 201.340,132.945 202.430,132.533 203.200 C 132.120 203.970,131.292 205.121,130.692 205.758 C 130.091 206.396,129.600 207.148,129.600 207.430 C 129.600 207.712,129.296 208.247,128.925 208.618 C 128.165 209.378,126.899 211.441,126.542 212.500 C 126.413 212.885,126.181 213.200,126.027 213.200 C 125.873 213.200,125.219 214.325,124.574 215.700 C 123.928 217.075,123.183 218.430,122.917 218.712 C 122.651 218.993,122.116 220.253,121.728 221.512 C 121.339 222.770,120.837 223.929,120.611 224.086 C 119.980 224.524,120.064 235.288,120.700 235.500 C 120.975 235.592,121.200 235.997,121.200 236.400 C 121.200 237.189,122.671 240.849,123.126 241.192 C 123.278 241.306,123.921 242.165,124.556 243.100 C 125.190 244.035,125.935 244.800,126.212 244.800 C 126.488 244.800,126.814 245.061,126.937 245.379 C 127.059 245.698,127.753 246.263,128.479 246.635 C 129.206 247.007,129.890 247.440,130.000 247.597 C 132.015 250.471,160.283 250.477,165.527 247.604 C 165.897 247.402,167.987 246.948,170.172 246.597 C 174.862 245.843,174.665 245.936,175.013 244.295 C 175.432 242.317,177.778 235.023,180.678 226.679 C 182.116 222.543,183.192 219.059,183.070 218.937 C 182.763 218.629,170.000 220.460,170.000 220.812 C 170.000 220.969,169.055 221.221,167.900 221.373 C 164.711 221.792,159.425 222.888,159.200 223.177 C 159.090 223.318,157.560 223.758,155.800 224.154 C 154.040 224.551,152.191 224.969,151.692 225.083 L 150.783 225.291 151.884 222.753 C 152.489 221.357,153.303 219.897,153.692 219.508 C 154.082 219.118,154.400 218.583,154.400 218.317 C 154.400 218.052,155.120 216.808,156.000 215.554 C 156.880 214.299,157.600 213.085,157.600 212.856 C 157.600 212.627,157.844 212.296,158.142 212.120 C 158.440 211.944,159.134 211.079,159.685 210.197 C 160.236 209.316,161.065 208.146,161.526 207.597 C 161.988 207.049,163.107 205.700,164.013 204.600 C 165.968 202.226,167.646 200.295,170.725 196.870 C 174.002 193.226,187.942 179.200,188.287 179.200 C 188.448 179.200,189.606 178.120,190.862 176.800 C 192.119 175.480,193.309 174.400,193.509 174.400 C 193.708 174.400,194.419 173.815,195.089 173.100 C 195.758 172.385,197.413 170.900,198.766 169.800 C 200.119 168.700,201.789 167.215,202.477 166.500 C 203.165 165.785,203.892 165.200,204.091 165.200 C 204.291 165.200,205.048 164.615,205.775 163.900 C 206.502 163.185,207.766 162.060,208.586 161.400 C 211.551 159.011,212.534 158.179,213.756 157.027 C 214.873 155.973,215.388 155.817,218.800 155.502 C 225.290 154.902,231.333 154.031,231.572 153.661 C 231.697 153.467,232.250 153.183,232.800 153.031 C 236.602 151.977,239.906 149.336,240.846 146.600 C 241.148 145.720,241.534 144.898,241.703 144.773 C 242.891 143.897,242.862 130.876,241.670 130.012 C 241.509 129.895,241.023 128.992,240.589 128.005 C 239.300 125.073,235.431 121.600,233.453 121.600 C 233.131 121.600,232.799 121.397,232.716 121.149 C 232.559 120.678,225.695 120.270,224.200 120.642 M194.883 219.446 C 194.429 220.740,193.321 223.870,192.421 226.400 C 189.491 234.643,187.200 241.706,187.200 242.496 C 187.200 243.302,189.608 243.224,191.185 242.367 C 191.523 242.183,193.950 241.665,196.579 241.217 C 199.207 240.769,201.472 240.267,201.611 240.101 C 201.750 239.936,202.823 238.450,203.995 236.800 C 207.502 231.861,211.970 226.423,215.689 222.564 C 219.336 218.781,219.493 218.400,217.413 218.400 C 216.724 218.400,215.953 218.193,215.700 217.940 C 215.390 217.630,212.060 217.417,205.475 217.286 L 195.710 217.091 194.883 219.446 M236.634 225.900 C 236.505 226.028,236.394 226.958,236.386 227.967 C 236.356 231.851,235.014 237.446,231.387 248.800 C 228.558 257.655,227.969 259.897,227.528 263.489 C 227.007 267.730,227.440 270.072,228.889 270.848 C 232.821 272.952,250.217 266.816,250.968 263.060 C 252.019 257.807,251.303 246.775,249.676 243.135 C 249.250 242.181,248.699 240.770,248.451 240.000 C 247.519 237.096,244.807 233.262,240.972 229.428 C 238.006 226.461,236.939 225.594,236.634 225.900 M222.893 229.811 C 220.423 232.047,213.775 239.527,214.051 239.762 C 214.239 239.922,219.125 241.583,220.211 241.856 C 220.930 242.036,221.171 241.593,222.339 237.930 C 223.064 235.658,224.115 232.486,224.676 230.881 C 225.965 227.190,225.859 227.127,222.893 229.811 M214.579 273.920 C 213.711 274.756,212.460 275.776,211.800 276.188 C 211.140 276.599,210.365 277.265,210.077 277.668 C 209.790 278.071,209.321 278.400,209.036 278.400 C 208.750 278.400,208.077 278.805,207.539 279.300 C 207.001 279.795,205.580 280.726,204.381 281.369 C 203.181 282.011,202.110 282.641,202.000 282.769 C 201.890 282.896,200.990 283.437,200.000 283.970 C 199.010 284.504,198.110 285.065,198.000 285.218 C 197.890 285.370,196.810 285.992,195.600 286.600 C 194.390 287.208,193.304 287.854,193.186 288.036 C 193.069 288.218,191.962 288.814,190.727 289.361 C 189.493 289.907,188.419 290.499,188.341 290.677 C 188.263 290.855,187.210 291.440,186.000 291.979 C 184.790 292.517,183.620 293.159,183.400 293.405 C 183.180 293.651,181.965 294.278,180.700 294.800 C 179.435 295.321,178.400 295.861,178.400 296.000 C 178.400 296.139,177.365 296.676,176.100 297.193 C 174.835 297.711,173.370 298.554,172.845 299.067 C 172.320 299.580,171.651 300.000,171.357 300.000 C 171.064 300.000,170.436 300.525,169.961 301.167 C 169.487 301.808,168.764 302.421,168.354 302.528 C 167.945 302.635,167.432 303.190,167.215 303.761 C 166.998 304.333,166.629 304.800,166.396 304.800 C 164.573 304.800,163.700 313.502,165.177 316.947 C 166.144 319.202,168.834 321.889,171.428 323.189 C 174.516 324.736,186.145 324.750,189.153 323.209 C 189.509 323.027,191.555 322.385,193.700 321.783 C 195.845 321.181,197.600 320.545,197.600 320.371 C 197.600 320.197,198.005 319.941,198.500 319.804 C 199.787 319.446,202.564 318.266,202.800 317.977 C 202.910 317.842,204.074 317.244,205.387 316.648 C 206.701 316.052,207.871 315.428,207.987 315.262 C 208.104 315.095,209.166 314.461,210.348 313.851 C 211.529 313.241,212.868 312.396,213.323 311.971 C 213.778 311.547,214.357 311.200,214.609 311.200 C 214.861 311.200,215.592 310.665,216.233 310.011 C 216.875 309.357,217.583 308.817,217.807 308.811 C 218.031 308.805,219.140 307.990,220.271 307.000 C 221.403 306.010,222.480 305.200,222.665 305.200 C 222.849 305.200,223.503 304.570,224.117 303.800 C 224.731 303.030,225.402 302.400,225.607 302.400 C 226.655 302.400,238.792 288.988,240.425 286.027 C 240.768 285.404,241.334 284.609,241.682 284.261 C 242.030 283.912,242.727 282.766,243.230 281.714 C 243.733 280.661,244.332 279.675,244.561 279.522 C 245.734 278.737,244.220 278.996,241.197 280.098 C 231.323 283.695,219.976 280.673,217.927 273.900 C 217.345 271.977,216.593 271.982,214.579 273.920 " stroke="none" fill="#3cacfc" fill-rule="evenodd"></path><path id="path2" d="M226.934 266.000 C 226.934 267.650,227.005 268.325,227.091 267.500 C 227.178 266.675,227.178 265.325,227.091 264.500 C 227.005 263.675,226.934 264.350,226.934 266.000 M245.500 267.429 C 244.005 268.240,244.096 268.578,245.600 267.800 C 246.260 267.459,246.800 267.094,246.800 266.990 C 246.800 266.732,246.757 266.747,245.500 267.429 M230.291 281.489 C 231.001 281.577,232.261 281.579,233.091 281.492 C 233.921 281.405,233.340 281.333,231.800 281.331 C 230.260 281.329,229.581 281.400,230.291 281.489 " stroke="none" fill="#acbc94" fill-rule="evenodd"></path><path id="path3" d="M236.164 226.151 C 236.047 226.454,236.011 227.579,236.084 228.651 L 236.215 230.600 236.408 228.099 C 236.602 225.573,236.549 225.147,236.164 226.151 M230.500 271.487 C 231.105 271.578,232.095 271.578,232.700 271.487 C 233.305 271.395,232.810 271.320,231.600 271.320 C 230.390 271.320,229.895 271.395,230.500 271.487 " stroke="none" fill="#80b8bf" fill-rule="evenodd"></path><path id="path4" d="M215.978 222.300 L 214.600 223.800 216.100 222.422 C 217.496 221.138,217.784 220.800,217.478 220.800 C 217.412 220.800,216.737 221.475,215.978 222.300 " stroke="none" fill="#94bcac" fill-rule="evenodd"></path></g></svg>